<svg width="44" height="44" viewBox="0 0 44 44" fill="none" xmlns="http://www.w3.org/2000/svg">
<path d="M0 5C0 2.23858 2.23858 0 5 0H39C41.7614 0 44 2.23858 44 5V39C44 41.7614 41.7614 44 39 44H5C2.23858 44 0 41.7614 0 39V5Z" fill="white"/>
<path d="M10.3125 12.875C11.7277 12.875 12.875 11.7277 12.875 10.3125C12.875 8.89727 11.7277 7.75 10.3125 7.75C8.89727 7.75 7.75 8.89727 7.75 10.3125C7.75 11.7277 8.89727 12.875 10.3125 12.875Z" fill="#DD3E47" stroke="#DD3E47"/>
<path d="M22 12.875C23.4152 12.875 24.5625 11.7277 24.5625 10.3125C24.5625 8.89727 23.4152 7.75 22 7.75C20.5848 7.75 19.4375 8.89727 19.4375 10.3125C19.4375 11.7277 20.5848 12.875 22 12.875Z" fill="#DD3E47" stroke="#DD3E47"/>
<path d="M33.6875 12.875C35.1027 12.875 36.25 11.7277 36.25 10.3125C36.25 8.89727 35.1027 7.75 33.6875 7.75C32.2723 7.75 31.125 8.89727 31.125 10.3125C31.125 11.7277 32.2723 12.875 33.6875 12.875Z" fill="#DD3E47" stroke="#DD3E47"/>
<path d="M10.3125 24.5625C11.7277 24.5625 12.875 23.4152 12.875 22C12.875 20.5848 11.7277 19.4375 10.3125 19.4375C8.89727 19.4375 7.75 20.5848 7.75 22C7.75 23.4152 8.89727 24.5625 10.3125 24.5625Z" fill="#DD3E47" stroke="#DD3E47"/>
<path d="M22 24.5625C23.4152 24.5625 24.5625 23.4152 24.5625 22C24.5625 20.5848 23.4152 19.4375 22 19.4375C20.5848 19.4375 19.4375 20.5848 19.4375 22C19.4375 23.4152 20.5848 24.5625 22 24.5625Z" fill="#DD3E47" stroke="#DD3E47"/>
<path d="M33.6875 24.5625C35.1027 24.5625 36.25 23.4152 36.25 22C36.25 20.5848 35.1027 19.4375 33.6875 19.4375C32.2723 19.4375 31.125 20.5848 31.125 22C31.125 23.4152 32.2723 24.5625 33.6875 24.5625Z" fill="#DD3E47" stroke="#DD3E47"/>
<path d="M10.3125 36.25C11.7277 36.25 12.875 35.1027 12.875 33.6875C12.875 32.2723 11.7277 31.125 10.3125 31.125C8.89727 31.125 7.75 32.2723 7.75 33.6875C7.75 35.1027 8.89727 36.25 10.3125 36.25Z" fill="#DD3E47" stroke="#DD3E47"/>
<path d="M22 36.25C23.4152 36.25 24.5625 35.1027 24.5625 33.6875C24.5625 32.2723 23.4152 31.125 22 31.125C20.5848 31.125 19.4375 32.2723 19.4375 33.6875C19.4375 35.1027 20.5848 36.25 22 36.25Z" fill="#DD3E47" stroke="#DD3E47"/>
<path d="M33.6875 36.25C35.1027 36.25 36.25 35.1027 36.25 33.6875C36.25 32.2723 35.1027 31.125 33.6875 31.125C32.2723 31.125 31.125 32.2723 31.125 33.6875C31.125 35.1027 32.2723 36.25 33.6875 36.25Z" fill="#DD3E47" stroke="#DD3E47"/>
</svg>
