<svg width="1920" height="891" viewBox="0 0 1920 891" fill="none" xmlns="http://www.w3.org/2000/svg">
<g clip-path="url(#clip0_7827_43805)">
<rect width="1920" height="891" fill="#3E3E98"/>
<g opacity="0.85">
<g filter="url(#filter0_d_7827_43805)">
<ellipse cx="1528.22" cy="483.822" rx="7.62105" ry="7.61769" transform="rotate(-19.4549 1528.22 483.822)" fill="white"/>
</g>
<path d="M1264.9 906.459L1273.78 795.467M1264.9 906.459L1556 896.54M1264.9 906.459L1720.78 598.792M1264.9 906.459L1927.93 550.262M1264.9 906.459L1518.5 670.245M1264.9 906.459L1448.8 694.867M1273.78 795.467L1389.5 797.005M1273.78 795.467L1922.58 552.269M1273.78 795.467L1556 896.54M1273.78 795.467L1448.8 694.867M1389.5 797.005L1448.8 694.867M1389.5 797.005L1831.51 699.448M1389.5 797.005L1764.23 486.096M1389.5 797.005L1922.58 552.269M1448.8 694.867L1518.5 670.245M1448.8 694.867L1556 896.54M1448.8 694.867L1528.9 481.16M1518.5 670.245L1528.9 481.16M1518.5 670.245L1729.38 410.342M1528.9 481.16L1720.78 598.792M1528.9 481.16L1831.51 699.448M1528.9 481.16L1556 896.54M1528.9 481.16L1927.93 550.262M1528.9 481.16L1729.38 410.342M1720.78 598.792L1764.23 486.096M1720.78 598.792L1556 896.54M1764.23 486.096L1729.38 410.342M1764.23 486.096L2024.33 713.337M1764.23 486.096L1965.83 205.638M1729.38 410.342L1890.02 396.016M1729.38 410.342L1556 896.54M1890.02 396.016L1965.83 205.638M1890.02 396.016L1831.51 699.448M1890.02 396.016L1556 896.54M1965.83 205.638L1927.93 550.262M1927.93 550.262L2024.33 713.337M1927.93 550.262L1922.58 552.269M2024.33 713.337L1831.51 699.448M1831.51 699.448L1556 896.54" stroke="white"/>
<g filter="url(#filter1_d_7827_43805)">
<ellipse cx="1272.43" cy="793.925" rx="7.62103" ry="7.61768" transform="rotate(-19.4549 1272.43 793.925)" fill="white"/>
</g>
<g filter="url(#filter2_d_7827_43805)">
<ellipse cx="1887.99" cy="397.137" rx="7.62103" ry="7.61769" transform="rotate(-19.4549 1887.99 397.137)" fill="white"/>
</g>
<g filter="url(#filter3_d_7827_43805)">
<ellipse cx="1731.86" cy="413.911" rx="9.52631" ry="9.5221" transform="rotate(-19.4549 1731.86 413.911)" fill="white"/>
</g>
<g filter="url(#filter4_d_7827_43805)">
<ellipse cx="1834.61" cy="704.812" rx="9.52631" ry="9.52213" transform="rotate(-19.4549 1834.61 704.812)" fill="white"/>
</g>
<g filter="url(#filter5_d_7827_43805)">
<ellipse cx="1717.97" cy="596.554" rx="9.52631" ry="9.52211" transform="rotate(-19.4549 1717.97 596.554)" fill="white"/>
</g>
<g filter="url(#filter6_d_7827_43805)">
<ellipse cx="1387.26" cy="799.816" rx="9.52629" ry="9.52209" transform="rotate(-19.4549 1387.26 799.816)" fill="white"/>
</g>
<g filter="url(#filter7_d_7827_43805)">
<ellipse cx="1759.66" cy="486.9" rx="11.4316" ry="11.4265" transform="rotate(-19.4549 1759.66 486.9)" fill="white"/>
</g>
<g filter="url(#filter8_d_7827_43805)">
<ellipse cx="1558.83" cy="893.115" rx="11.4315" ry="11.4265" transform="rotate(-19.4549 1558.83 893.115)" fill="white"/>
</g>
<g filter="url(#filter9_d_7827_43805)">
<ellipse cx="1518.48" cy="669.041" rx="11.4315" ry="11.4265" transform="rotate(-19.4549 1518.48 669.041)" fill="white"/>
</g>
<g filter="url(#filter10_d_7827_43805)">
<ellipse cx="1446.62" cy="694.424" rx="11.4316" ry="11.4265" transform="rotate(-19.4549 1446.62 694.424)" fill="white"/>
</g>
<g filter="url(#filter11_d_7827_43805)">
<ellipse cx="1920.77" cy="547.138" rx="11.4315" ry="11.4265" transform="rotate(-19.4549 1920.77 547.138)" fill="white"/>
</g>
</g>
<g opacity="0.85">
<g filter="url(#filter12_d_7827_43805)">
<ellipse cx="401.506" cy="209.776" rx="7.62105" ry="7.61769" transform="rotate(160.545 401.506 209.776)" fill="white"/>
</g>
<path d="M664.829 -212.86L655.944 -101.868M664.829 -212.86L373.725 -202.941M664.829 -212.86L208.944 94.8063M664.829 -212.86L1.79624 143.337M664.829 -212.86L411.227 23.3533M664.829 -212.86L480.93 -1.26813M655.944 -101.868L540.225 -103.407M655.944 -101.868L7.14933 141.33M655.944 -101.868L373.725 -202.941M655.944 -101.868L480.93 -1.26813M540.225 -103.407L480.93 -1.26813M540.225 -103.407L98.2214 -5.8491M540.225 -103.407L165.502 207.503M540.225 -103.407L7.14933 141.33M480.93 -1.26813L411.227 23.3533M480.93 -1.26813L373.725 -202.941M480.93 -1.26813L400.83 212.438M411.227 23.3533L400.83 212.438M411.227 23.3533L200.343 283.257M400.83 212.438L208.944 94.8063M400.83 212.438L98.2214 -5.8491M400.83 212.438L373.725 -202.941M400.83 212.438L1.79624 143.337M400.83 212.438L200.343 283.257M208.944 94.8063L165.502 207.503M208.944 94.8063L373.725 -202.941M165.502 207.503L200.343 283.257M165.502 207.503L-94.6033 -19.7386M165.502 207.503L-36.101 487.961M200.343 283.257L39.7116 297.582M200.343 283.257L373.725 -202.941M39.7116 297.582L-36.101 487.961M39.7116 297.582L98.2214 -5.8491M39.7116 297.582L373.725 -202.941M-36.101 487.961L1.79624 143.337M1.79624 143.337L-94.6033 -19.7386M1.79624 143.337L7.14933 141.33M-94.6033 -19.7386L98.2214 -5.8491M98.2214 -5.8491L373.725 -202.941" stroke="white"/>
<g filter="url(#filter13_d_7827_43805)">
<ellipse cx="41.7408" cy="296.462" rx="7.62103" ry="7.61769" transform="rotate(160.545 41.7408 296.462)" fill="white"/>
</g>
<g filter="url(#filter14_d_7827_43805)">
<ellipse cx="197.87" cy="279.688" rx="9.52631" ry="9.5221" transform="rotate(160.545 197.87 279.688)" fill="white"/>
</g>
<g filter="url(#filter15_d_7827_43805)">
<ellipse cx="95.1137" cy="-11.2138" rx="9.52631" ry="9.52213" transform="rotate(160.545 95.1137 -11.2138)" fill="white"/>
</g>
<g filter="url(#filter16_d_7827_43805)">
<ellipse cx="211.755" cy="97.045" rx="9.52631" ry="9.52211" transform="rotate(160.545 211.755 97.045)" fill="white"/>
</g>
<g filter="url(#filter17_d_7827_43805)">
<ellipse cx="170.068" cy="206.698" rx="11.4316" ry="11.4265" transform="rotate(160.545 170.068 206.698)" fill="white"/>
</g>
<g filter="url(#filter18_d_7827_43805)">
<ellipse cx="411.248" cy="24.5577" rx="11.4315" ry="11.4265" transform="rotate(160.545 411.248 24.5577)" fill="white"/>
</g>
<g filter="url(#filter19_d_7827_43805)">
<ellipse cx="483.108" cy="-0.825071" rx="11.4316" ry="11.4265" transform="rotate(160.545 483.108 -0.825071)" fill="white"/>
</g>
<g filter="url(#filter20_d_7827_43805)">
<ellipse cx="8.96225" cy="146.461" rx="11.4315" ry="11.4265" transform="rotate(160.545 8.96225 146.461)" fill="white"/>
</g>
</g>
<path d="M796.347 554.666C573.788 585.559 518.635 481.108 418.656 481.108C318.676 481.108 259.768 487.455 165.26 554.666C70.752 621.877 -1 481.108 -1 481.108V715.293C-1 715.293 192.152 662.14 329.516 647.603C547.847 624.497 579.68 804.92 796.347 769.335C973.46 740.246 1087.35 474.685 1239.94 569.078C1390.17 662.014 1430.73 724.665 1621.05 715.293C1719.17 710.462 1919 715.293 1919 715.293V533.149C1919 533.149 1778.13 542.636 1675.27 554.666C1475.68 578.01 1465 418.506 1265 438C1089.33 455.122 971.186 530.397 796.347 554.666Z" fill="url(#paint0_linear_7827_43805)"/>
<g filter="url(#filter21_d_7827_43805)">
<path d="M-1 483C-1 483 202.703 577.604 406.156 568.859C407.485 568.797 408.814 568.736 410.142 568.674C411.217 568.621 412.288 568.577 413.356 568.543C585.105 562.399 661.429 702.051 834.305 692.78C1025.64 682.519 1229.61 629.134 1421.22 628.726C1584.14 618.519 1599.5 568.674 1793.3 520.133C1867.72 501.493 1919 520.133 1919 520.133V668.465C1919 668.465 1847.1 613.219 1793.3 593.833C1647.63 541.349 1576.27 628.395 1421.22 628.726C1226.04 640.953 1029.75 793.983 834.305 800.872C659.627 807.029 586.681 562.967 413.356 568.543C412.288 568.581 411.217 568.625 410.142 568.674C408.814 568.74 407.485 568.802 406.156 568.859C204.051 578.268 -1 595.197 -1 595.197V483Z" fill="url(#paint1_linear_7827_43805)"/>
</g>
<g filter="url(#filter22_d_7827_43805)">
<path d="M444 600.951C171.251 604.438 -1 515.785 -1 515.785V680.818C-1 680.818 186 605.564 376 793.842C566 982.12 420 637.437 610 680.818C800 724.199 867 1022.44 1088.5 866.5C1310 710.565 1616.73 809.438 1711.5 793.842C1880.82 765.977 1809 642.434 1919 657.574V493.994C1919 493.994 1739.5 645.433 1443.5 593.455C1147.5 541.476 1232 513.308 1173.5 537.5C1115 561.692 1070.43 582.408 985 593.455C884.5 606.45 692.83 550.138 625.5 544.975C563.706 540.236 500.987 600.223 444 600.951Z" fill="url(#paint2_linear_7827_43805)"/>
</g>
<g clip-path="url(#clip1_7827_43805)">
<path d="M659.72 502.92C658.59 503.4 657.21 504.47 656.41 504.75C655.61 505.03 654.75 504.81 653.99 505.23C652.591 505.842 651.025 505.959 649.55 505.56C647.98 505.03 642.88 502.76 640.27 503.11C637.66 503.46 637.4 504.11 636.27 503.61C635.14 503.11 633.98 502.14 632.27 502.07C630.56 502 629.96 501.18 627.54 500.62C627.064 500.502 626.615 500.291 626.22 500C625.256 499.461 624.148 499.237 623.05 499.36C623.525 498.636 623.823 497.81 623.92 496.95C623.92 495.75 624.92 495.43 624.58 493.79C624.39 492.73 624.58 491.11 624.09 490.44C623.6 489.77 624.29 489.58 622.74 488.18C621.19 486.78 621.88 486.57 620.45 486.49C619.507 486.439 618.568 486.322 617.64 486.14C616 485.91 615.52 485.91 614.56 486.57C613.508 487.305 612.677 488.315 612.16 489.49C611.77 490.43 611.16 490.62 611.16 492.23C611.16 493.84 610.31 495.23 610.83 496.03C611.35 496.83 611.24 497.91 611.39 498.8C611.452 499.238 611.628 499.651 611.9 500H611.71C611.185 499.837 610.64 499.743 610.09 499.72C609.369 499.594 608.631 499.594 607.91 499.72C607.19 499.72 606.43 499.86 605.65 499.98C602.3 500.52 601.28 503.49 596.6 505.51C591.92 507.53 589.72 512.26 586 513.43C582.28 514.6 579.38 518.43 576.26 521.54C573.14 524.65 569.94 526.48 567.66 526.67C565.38 526.86 564.5 528 563.84 528.28C563.18 528.56 562.9 529.49 561.84 530.28C560.78 531.07 562.19 531.11 561.39 531.92C560.59 532.73 562.17 532.63 562.17 532.63C562.17 532.63 562.12 533.52 562.58 533.78C563.04 534.04 564.58 531.78 565.31 532.9C566.04 534.02 571.31 532.61 572.45 530.79C573.59 528.97 577.56 525.63 582.03 523.86C586.5 522.09 587.9 518.31 591.45 518.09C591.452 518.239 591.476 518.388 591.52 518.53C591.861 519.588 591.986 520.703 591.89 521.81C591.73 522.37 591.37 523.57 592.11 524.08C592.85 524.59 592.11 526.22 592.68 526.47C593.25 526.72 593.4 529.03 594.07 529.21C594.436 529.322 594.818 529.37 595.2 529.35C594.431 530.039 593.581 530.634 592.67 531.12C590.95 532.12 588.44 532.76 586.38 536.97C585.133 539.553 583.49 541.925 581.51 544C580.51 545.19 579.14 545.15 578.79 546.75C578.733 546.993 578.656 547.23 578.56 547.46C557 558 543.3 567.3 539.31 573.85L539.15 574.06C537.08 576.88 536.48 579.69 537.46 581.32C538.44 582.95 544.35 587.53 568.85 578.54C594 569.31 626 548.76 630.55 535.67C631.98 532.15 630.12 530.78 630.12 530.78L629.4 530.9L627.61 531.19L626.61 531.35L625.18 531.59L624.18 531.22L623.18 530.86C623.18 530.86 620.64 531.41 616.35 532.63C616.331 532.522 616.282 532.422 616.21 532.34C615.574 531.314 615.27 530.116 615.34 528.91C615.59 528.3 613.22 526.39 613.94 525.83C614.66 525.27 614.44 524.43 613.78 523.49C613.12 522.55 612.57 522.18 612.78 521.32C612.912 520.781 612.855 520.213 612.62 519.71C612.62 519.71 615.62 517.08 616 516.21C616.38 515.34 619.89 514.28 621.65 513.16C623.41 512.04 628 508.33 629.65 508.7C631.11 508.97 636.07 509.86 637.27 509.6C638.67 509.3 639.55 510.17 642.27 509.81C644.99 509.45 651.37 508.26 651.79 508.73C652.21 509.2 654.87 508.16 656.17 507.16C657.47 506.16 658.99 504.85 659.67 504.3C660.35 503.75 660.85 502.45 659.72 502.92ZM607.59 539C608.03 539 608.42 540 608.79 540.46C609.16 540.92 609.68 543.36 610.01 544.11C610.34 544.86 612.61 546.03 611.4 545.94C610.844 545.86 610.31 545.664 609.835 545.364C609.359 545.064 608.952 544.668 608.64 544.2C608.45 543.69 608.23 540.85 607.9 540.35C607.69 539.931 607.584 539.468 607.59 539ZM589.49 543C594.49 540.77 598.27 539.32 601.67 538C608.82 535.33 599.98 540.68 594.59 542.28C591.713 543.313 588.892 544.498 586.14 545.83C587.102 544.718 588.233 543.763 589.49 543ZM608.79 545.14C609.009 545.321 609.24 545.488 609.48 545.64C608.09 546.64 606.48 547.77 604.8 548.85C605.584 548.084 606.319 547.269 607 546.41L608.82 545.14H608.79ZM618.18 547C617.98 547.13 617.78 547.27 617.59 547.42C617.04 547.49 616.41 547.55 615.75 547.61C617.309 546.244 619.105 545.176 621.05 544.46L621.54 544.35C620.54 545.2 619.43 546.08 618.18 547ZM569.66 574.6C567.5 575.45 565.42 576.22 563.45 576.87C569.22 572.71 573.35 569.56 576.65 567.87C581.18 565.62 591.56 559.41 596.65 556.1C597.75 555.38 599.03 554.57 600.36 553.75L601.51 553.66C599.15 555.2 596.85 556.72 594.92 558.06C588.59 562.44 591.57 561.78 583.7 568L583 568.6C579.82 570.2 576.74 571.633 573.76 572.9C578.41 570.29 584.76 566.36 588.67 562.34C581.874 565.667 575.494 569.781 569.66 574.6ZM552.12 579.69C551.146 579.833 550.164 579.923 549.18 579.96C553.77 577.33 558.02 574.96 561.49 573.06C565.83 571.32 570.36 569.4 574.88 567.31C570.804 569.512 566.87 571.967 563.1 574.66C561.3 575.97 559.59 577.25 557.89 578.53C556.8 578.81 555.76 579.05 554.77 579.24C559.72 575.68 563.77 572.85 565.71 571.76C565.71 571.76 559.84 574.74 552.12 579.69ZM585 554.81H586.24L584.43 555.81C584.304 555.658 584.194 555.494 584.1 555.32L585 554.81ZM598.69 553.93L599.87 553.84C596.87 555.68 593.87 557.52 591.71 558.66C591.03 559.03 590.25 559.44 589.42 559.86C592.62 558.051 595.722 556.071 598.71 553.93H598.69ZM598.9 556.5C599.72 555.82 601.12 554.78 602.75 553.62L604.87 553.47C601.18 556.36 596.46 560.14 592.47 563.56C591.364 564.187 590.254 564.797 589.14 565.39C592.42 562.45 596.45 558.54 598.92 556.5H598.9ZM618.4 544.84C616.47 545.96 614.77 547.12 613.88 547.76C613.447 547.76 613.017 547.76 612.59 547.76H612.45C613.95 546.56 615.1 545.65 616.14 544.93C616.78 545 617.57 544.92 618.42 544.84H618.4ZM614.79 545.54C613.79 546.47 612.85 547.33 612.37 547.79C611.98 547.79 611.49 547.86 610.92 547.94L613.5 546.2C613.964 546.039 614.405 545.817 614.81 545.54H614.79ZM597.87 559.87C600.928 557.997 603.78 555.808 606.38 553.34C607.107 553.28 607.817 553.21 608.51 553.13C607.89 553.76 607.27 554.4 606.67 554.99C602.67 557.56 598.67 560.05 594.52 562.41C595.547 561.45 596.669 560.599 597.87 559.87ZM611.67 546.43C612.279 546.483 612.892 546.408 613.47 546.21C612.6 546.73 611.61 547.34 610.54 548C610.07 548.07 609.54 548.15 609.02 548.25C609.181 548.126 609.326 547.981 609.45 547.82L608.7 548.3L606.39 548.74C607.29 548.18 608.09 547.67 608.76 547.21C609.43 546.75 609.87 546.45 610.35 546.09C610.705 546.242 611.078 546.346 611.46 546.4L610.46 547.33C610.46 547.33 610.88 547 611.67 546.43ZM593.4 550.71L591.91 550.93L607.91 541.93C607.91 542.09 607.91 542.25 607.98 542.42L593.4 550.71ZM579.63 557.85L579.82 557.92C580.002 557.967 580.169 558.056 580.31 558.18L540.37 581C540.09 580.849 539.822 580.675 539.57 580.48L579.63 557.85ZM548.63 577.85C550.45 577.21 552.38 576.52 554.4 575.76C552.06 577.11 549.67 578.5 547.27 579.92C546.598 579.885 545.93 579.801 545.27 579.67L548.63 577.85ZM628.5 537C628.13 537.15 627.62 537.33 627.03 537.52C627.38 537.218 627.678 536.86 627.91 536.46C626.602 537.038 625.336 537.706 624.12 538.46L621.59 539.18C621.864 539.016 622.148 538.869 622.44 538.74C624.993 537.503 627.477 536.127 629.88 534.62C629.79 534.87 629.69 535.14 629.56 535.43C628.68 536.1 629 536.29 628.5 537ZM630 534.25C629.31 534.65 628.7 534.99 628.23 535.25C626.23 536.25 622.44 537.75 619.49 539.42C619.291 539.333 619.114 539.203 618.97 539.04C620.8 538.17 623.4 537 626 535.66C626.094 535.625 626.184 535.581 626.27 535.53C627.59 534.87 628.9 534.21 630.11 533.53C630.092 533.772 630.055 534.013 630 534.25ZM618.53 538.5C618.44 538.39 618.36 538.27 618.27 538.17C619.5 537.65 620.8 537.12 622.13 536.54L623.28 536.37C621.9 537 620.34 537.71 618.53 538.5ZM618 537.92C617.852 537.775 617.675 537.663 617.48 537.59L617.75 537.45C618.13 537.26 618.62 537.04 619.18 536.79C619.77 536.79 620.34 536.72 620.91 536.67L618 537.92ZM617.07 537.51H616.87C616.625 537.524 616.38 537.557 616.14 537.61L616.02 537.31L616.86 536.84C617.41 536.84 617.97 536.84 618.52 536.84L617.07 537.51ZM607.55 540.65L587.49 551.65L586 551.85L607.42 540.29C607.465 540.415 607.522 540.536 607.59 540.65H607.55ZM592.82 541C594.114 540.154 595.271 539.116 596.25 537.92C597.65 536.05 598.11 536.32 600.25 534.98C602.39 533.64 602.64 533.86 602.64 533.86C603.013 534.51 603.309 535.201 603.52 535.92C603.605 536.199 603.733 536.462 603.9 536.7C600.49 537.87 596.76 539.29 592.82 541ZM577.64 521.61C576.41 522.94 574.33 525.68 573.37 526.02C572.41 526.36 571.93 525.71 571.62 526.43C571.31 527.15 568.44 526.95 568.44 526.95C571.019 526.302 573.38 524.98 575.28 523.12C578.46 520 582.62 515.83 584.59 514.81C586.56 513.79 589.59 512.62 590.59 511.11C592.106 509.067 594.056 507.387 596.3 506.19C598.93 504.915 601.383 503.305 603.6 501.4C604.77 500.18 608.27 500.02 607.6 501.4C606.93 502.78 605.29 504.51 601.6 505.32C597.91 506.13 595.1 508 595.56 508.79C596.02 509.58 593.97 508.79 593.05 509.87C592.13 510.95 592.26 512.17 589.94 513.3C587.62 514.43 578.86 520.28 577.64 521.61ZM594.26 528.74C593.7 528.43 593.58 526.65 593.15 526.3C592.72 525.95 592.74 525.97 592.89 525.18C593.04 524.39 592.45 523.95 592.16 523.34C591.87 522.73 592.29 521.46 592.28 520.48C592.272 519.909 592.132 519.348 591.87 518.84C591.87 518.84 596.53 519.46 594.07 520.02C591.61 520.58 595.66 520.53 594.28 521.56C592.9 522.59 593.2 523.1 595.71 522.84C598.22 522.58 597.56 523.46 596.53 524.07C595.5 524.68 596.53 526.33 597.46 525.66C598.39 524.99 602.07 526.79 599.94 526.66C597.81 526.53 595.71 528.76 595.71 528.76C595.498 528.912 595.243 528.992 594.982 528.989C594.721 528.985 594.468 528.898 594.26 528.74ZM580.48 545.39C581.57 544.93 584.96 540.94 585.95 538.89C586.94 536.84 588.21 534.4 589.95 533.41C591.69 532.42 596.74 529.41 597.95 528.07C599.16 526.73 601.33 528.43 598.82 529.61C596.31 530.79 593.82 531.61 593.08 532.54C592.34 533.47 588.58 537 587.51 538.89C586.44 540.78 582.58 545.41 581.92 545.72C581.26 546.03 580.53 545.92 580.58 546.79C580.63 547.66 580.07 548.33 579.2 549.41C578.33 550.49 578.14 551.41 578.36 554.68C577.997 553.345 577.792 551.973 577.75 550.59C577.92 549.65 578.89 548.44 578.98 547.59C578.996 547.119 579.146 546.662 579.411 546.273C579.677 545.883 580.048 545.577 580.48 545.39ZM567.61 553.74C571.61 551.67 575.05 549.89 578.18 548.34C577.879 548.911 577.644 549.515 577.48 550.14C566.62 555.74 554 563.24 549.62 569C548.305 570.757 546.832 572.391 545.22 573.88L578.22 556.07C578.252 556.257 578.299 556.441 578.36 556.62L538.25 578.52C538.179 578.262 538.139 577.997 538.13 577.73C538.13 577.73 540.62 567.86 567.61 553.74ZM630.11 532.48C630.11 532.62 630.11 532.77 630.11 532.93C629.04 533.52 627.91 534.11 626.61 534.76C626.54 534.679 626.455 534.611 626.36 534.56C627.69 533.91 628.94 533.22 630.11 532.48ZM628 532.12H629.06C628.1 532.979 627.05 533.733 625.93 534.37C625.694 534.291 625.453 534.224 625.21 534.17L625.65 533.94C626.47 533.381 627.254 532.774 628 532.12ZM626.84 532.12C626.104 532.816 625.307 533.445 624.46 534C624.23 534 624 533.94 623.75 533.91C624.613 533.435 625.39 532.82 626.05 532.09L626.84 532.12ZM625.25 532.12H626L623.39 533.6C623.26 533.699 623.123 533.789 622.98 533.87H622.24L625.25 532.12ZM623.2 532.12L620.12 533.8H619.36L622.51 532.1L623.2 532.12ZM621.84 532.12L621.21 532.38C620.226 532.791 619.279 533.286 618.38 533.86H617.73C618.62 533.22 619.58 532.49 620.12 532.08L621.84 532.12ZM620.01 532.12C619.4 532.5 618.31 533.18 617.13 533.95L616.51 534.01V533.75C617.1 533.38 618.19 532.75 619.3 532.12H620.01ZM618.71 532.19C617.96 532.57 617.21 532.97 616.5 533.34C616.5 533.26 616.5 533.19 616.5 533.12L618 532.4L618.71 532.19ZM617.49 532.53L616.49 533.02C616.49 532.95 616.49 532.88 616.49 532.82L617.49 532.53ZM605.78 537C606.02 537.59 607.08 537.37 607.59 537.81C608.1 538.25 607.32 538.81 606.59 538.22C605.86 537.63 604.42 537 604.22 536.37C603.976 535.686 603.688 535.018 603.36 534.37C604.52 536.15 605.54 536.45 605.78 537ZM615.17 496.78C615.1 497.78 614.09 498.94 614.79 498.89C615.49 498.84 614.7 499.83 614.06 500.13C613.42 500.43 614.85 501.13 614.5 501.42C614.15 501.71 614.99 502.77 614.67 502.81C614.35 502.85 613.36 500.49 612.93 500.08C612.67 499.754 612.48 499.378 612.374 498.975C612.267 498.572 612.245 498.152 612.31 497.74C612.43 496.81 611.88 495.98 611.96 495.17C612 494.353 611.977 493.534 611.89 492.72C612.058 492.844 612.192 493.007 612.281 493.196C612.37 493.384 612.411 493.592 612.4 493.8C612.4 494.5 612.62 493.96 612.57 494.71C612.52 495.46 612.35 495.28 613 495.33C613.65 495.38 613.44 495.7 613.44 495.7C612.64 495.46 612.52 496.39 613.23 496.36C613.581 496.334 613.921 496.23 614.227 496.058C614.533 495.885 614.797 495.647 615 495.36C615.59 494.75 615.24 495.81 615.17 496.82V496.78ZM613.91 489.16C614.62 488.82 616.11 488.99 614.26 489.53C612.41 490.07 613.14 491.15 612.26 492C611.38 492.85 611.61 492.21 611.92 491.11C612.426 489.981 613.021 488.894 613.7 487.86C614.16 487 616.11 486.67 616.11 486.67C613.41 488.38 613.2 489.5 613.91 489.16Z" fill="white"/>
</g>
<g clip-path="url(#clip2_7827_43805)">
<path d="M-0.179916 473.7C-0.0299149 473.58 0.560089 472.51 0.880089 472.25C1.20009 471.99 1.61008 471.37 2.03008 471.04C2.54624 470.34 3.10392 469.672 3.70009 469.04C4.68867 466.444 5.81699 463.903 7.08009 461.43C8.99009 458.12 9.42008 458.05 10.7201 457.02C12.0377 456.186 13.2355 455.177 14.2801 454.02C14.8603 453.273 15.4847 452.562 16.1501 451.89C17.2052 450.883 18.5538 450.238 20.0001 450.05C21.4673 449.641 22.978 449.41 24.5001 449.36C23.7901 446.71 22.0801 440.47 22.6701 438.48C23.2601 436.49 23.7501 434 27.5801 433.17C28.2478 432.961 28.9537 432.905 29.6459 433.005C30.3382 433.106 30.9991 433.36 31.5801 433.75H31.7401C32.8801 433.75 32.7401 434.69 33.4701 435.97C34.3301 437.43 34.4701 437.77 34.3701 438.97C34.36 439.106 34.36 439.243 34.3701 439.38C34.7129 439.935 35.1655 440.415 35.7001 440.79C35.7001 440.79 35.3101 440.63 34.8701 440.4C35.1121 440.719 35.2981 441.078 35.4201 441.46C35.8401 442.78 35.3601 443.46 35.2801 444.38C35.2001 445.3 35.0501 445.9 35.0601 444.38C35.0582 444.114 35.0315 443.85 34.9801 443.59C34.8509 444.279 34.6394 444.951 34.3501 445.59C33.4301 447.7 34.3501 447.59 35.0501 448.36C35.7501 449.13 38.6601 448.96 41.3601 450.23C44.6982 451.627 47.4016 454.209 48.9501 457.48C50.6001 461.22 52.9501 461.78 55.3701 465.23C57.7901 468.68 58.9201 469.68 59.7101 475.67C59.7599 476.258 59.7599 476.851 59.7101 477.44V477.4C60.7101 482.18 61.3701 487.97 62.2301 489.07C63.3801 490.52 63.4601 490.92 63.6201 492.9C63.7601 494.66 64.3901 495.06 63.6201 496.12C62.8501 497.18 61.7101 500.29 61.0901 499.4C60.4701 498.51 61.4101 498.18 60.7901 496.49C60.4305 495.5 59.9994 494.537 59.5001 493.61C59.8976 494.427 60.0866 495.331 60.0501 496.24C59.8701 497.36 59.2501 497.3 59.1201 496.04C58.9901 494.78 57.6101 494.25 57.6501 493.04C57.6901 491.83 58.3301 487.49 57.2501 484.51C57.0245 483.97 56.8373 483.415 56.6901 482.85C55.9051 484.187 55.236 485.588 54.6901 487.04C53.5462 488.751 52.5589 490.561 51.7401 492.45C50.8101 494.84 48.7401 496.45 48.0601 497.71C47.6501 498.44 46.0001 496.42 46.0001 496.42C46.0001 496.42 44.2901 496.78 46.1801 498.94C48.7259 501.86 50.7215 505.218 52.0701 508.85C52.7001 510.57 53.6501 513.71 54.5701 516.48C77.6701 525.88 91.8201 535.33 94.7701 542.78C96.5001 545.8 96.5801 549 95.1501 551C93.7201 553 86.7201 558.72 63.3801 552.24C40.0401 545.76 10.3001 527.78 4.75008 512.77C3.17008 508.87 4.45009 506.77 4.45009 506.77H5.10008H6.73009H7.64008H8.97009L9.80009 506.03L10.6101 505.3C17.3604 505.796 24.0533 506.89 30.6101 508.57C29.9401 507.42 29.1701 506.21 28.2701 504.96C24.6001 499.81 23.7101 497.32 25.0201 494.66C26.4401 491.75 26.6001 491.48 26.6001 491.48C26.3949 491.365 26.1648 491.304 25.9301 491.3C25.65 491.263 25.3826 491.16 25.1501 491C25.5013 490.345 25.7604 489.645 25.9201 488.92C26.3401 486.76 30.1001 480.07 33.8401 477.24C35.345 475.907 36.4378 474.172 36.9901 472.24C34.8301 471.18 34.8301 469.6 32.8901 468.81C30.7263 467.593 28.6421 466.24 26.6501 464.76C26.3027 464.504 25.9689 464.23 25.6501 463.94C24.4756 463.072 23.4112 462.064 22.4801 460.94C21.0501 459.75 19.5901 458.99 18.6401 459.77C16.3701 461.61 15.3801 461.58 14.0101 462.42C12.6401 463.26 11.8601 463.8 11.8601 463.8C11.4701 465.19 7.97009 469.23 6.78008 470.58C6.85689 470.779 6.90732 470.987 6.93008 471.2C6.99178 471.711 6.99178 472.228 6.93008 472.74C6.88982 473.208 6.8163 473.672 6.71008 474.13C6.44915 474.69 6.26096 475.281 6.15009 475.89C6.15009 476.26 5.67008 477.62 5.35008 477.59C5.03008 477.56 4.84009 477.54 4.69009 477.19C4.67755 476.493 4.84274 475.805 5.17008 475.19C5.35084 474.821 5.41369 474.405 5.35008 474C5.29008 473.87 5.24009 473.68 4.98009 474.12C4.72009 474.56 3.66008 475.7 3.53008 476.06C3.18808 476.764 2.77956 477.433 2.31009 478.06C2.01009 478.43 1.81009 479.21 1.31009 479.44C0.810089 479.67 0.610085 479.58 0.580086 479.31C0.636169 478.778 0.852371 478.276 1.20009 477.87C1.55664 477.224 1.87064 476.556 2.14008 475.87C2.34008 475.55 2.90009 474.94 2.76009 474.92C2.62009 474.9 2.36008 475.18 2.21008 475.49C2.06008 475.8 1.66009 476.7 1.47009 476.98C1.17955 477.288 0.927689 477.63 0.720085 478C0.640083 478.31 0.380081 478.88 0.0400848 478.89C-0.299911 478.9 -0.409912 478.69 -0.199913 478.24C0.0100861 477.79 0.190086 477.24 0.340088 476.86C0.57341 476.292 0.844002 475.741 1.15009 475.21C1.48009 474.73 1.84009 474.43 1.77009 474.34C1.70009 474.25 1.52009 474.43 1.37009 474.69C1.05605 475.103 0.775169 475.541 0.530083 476C0.357224 476.536 0.150139 477.06 -0.0899124 477.57C-0.209915 477.78 -0.449921 477.82 -0.539917 477.73C-0.629913 477.64 -0.619919 477.37 -0.539917 477.02C-0.438225 476.414 -0.284325 475.818 -0.0799179 475.24C0.130081 474.83 0.920082 473.76 0.920082 473.76C0.920082 473.76 0.390083 474.3 -0.0799179 474.87C-0.399918 475.25 -0.499908 475.6 -0.659912 475.65C-0.819916 475.7 -0.96991 475.54 -0.939911 475.32C-0.745842 474.754 -0.491028 474.211 -0.179916 473.7ZM58.7601 484.54C59.6701 490.18 58.0301 490.2 59.8701 490.85C61.7101 491.5 60.5501 492.49 61.6001 493.09C62.6501 493.69 61.1201 497.64 61.5201 499.22C62.073 498.026 62.7044 496.87 63.4101 495.76C63.7701 495.49 63.6601 494.5 63.4101 493.62C63.1601 492.74 63.4101 491.31 62.8801 490.62C61.8191 489.651 61.1591 488.32 61.0301 486.89C60.5001 483.96 59.5601 479.45 59.4301 478.18C59.3001 476.91 59.2801 471.61 56.4301 467.47C53.7201 463.55 50.6301 462.62 48.4301 457.99C46.2301 453.36 43.1501 452.17 43.1501 452.17C43.1501 452.17 47.1501 457.85 47.4001 460.38C47.6501 462.91 48.4001 465.53 52.1401 467.19C55.8801 468.85 53.9201 469.13 54.3601 470.92C54.8001 472.71 57.8501 478.91 58.7601 484.54ZM46.0301 496C46.0301 496 47.2701 497.27 47.5601 497.3C47.8501 497.33 48.4901 496.3 49.4401 495.37C50.3864 494.133 51.1198 492.747 51.6101 491.27C52.2783 489.866 53.0751 488.527 53.9901 487.27C54.2907 486.703 54.5481 486.115 54.7601 485.51C54.9398 485.031 55.1537 484.567 55.4001 484.12C55.6601 483.68 56.4001 482.12 56.4001 482.12C56.0701 481.47 54.6901 476.12 54.6901 476.12C54.3701 476.39 54.2401 478.45 51.8001 478.12C49.3601 477.79 50.6001 479.36 53.1801 480.71C55.7601 482.06 55.1201 483.16 53.6201 483.13C53.275 483.083 52.9241 483.15 52.6201 483.32C51.1701 483.47 50.0401 483.73 51.2401 484.18C53.6701 485.11 46.3701 484.32 49.9401 485.5C53.5101 486.68 44.9401 486.94 46.9401 487.5C48.9401 488.06 50.2201 491 48.3901 490C46.5601 489 40.3101 489.57 43.6701 490C47.0301 490.43 47.1501 492.89 45.3001 492.36C43.4501 491.83 40.7001 491.84 42.8301 493.02C44.9601 494.2 45.0601 495.39 46.0301 496ZM52.2701 510.63C51.1132 507.271 49.4762 504.099 47.4101 501.21C45.1401 498.27 44.8401 497.85 44.8401 497.85C44.8401 497.85 43.9701 497.77 44.3601 499.46C44.7501 501.15 49.0301 507.31 51.0501 512.63C53.0701 517.95 53.8501 521.49 54.4401 522C55.0301 522.51 56.5801 522.31 55.8301 523.4C55.0801 524.49 56.4701 524.74 55.7701 526.13C55.0701 527.52 55.7701 528.22 54.4601 529.95C53.1501 531.68 53.3601 532.06 52.3901 532.95C51.4201 533.84 48.8801 534.95 50.6101 535.16C51.0697 534.982 51.4784 534.693 51.8001 534.32C52.2101 533.76 53.1101 533.5 53.4701 533.22C54.4247 532.532 55.3395 531.791 56.2101 531C56.9074 530.359 57.5559 529.667 58.1501 528.93C58.2501 528.58 58.7701 527.93 58.5601 527.23C58.256 526.53 57.8878 525.861 57.4601 525.23C57.0584 524.516 56.8321 523.718 56.8001 522.9C56.8001 521.8 55.8001 521.46 55.6101 520.71C55.4201 519.96 52.7901 512.32 52.2701 510.63ZM23.2701 510.77C23.7759 511.076 24.304 511.343 24.8501 511.57C24.9376 511.373 25.0378 511.183 25.1501 511C24.0766 510.569 23.0672 509.994 22.1501 509.29C22.0231 509.437 21.8787 509.568 21.7201 509.68C22.1905 510.091 22.6995 510.456 23.2401 510.77H23.2701ZM20.9601 510.18C20.8244 510.261 20.6842 510.334 20.5401 510.4L21.0801 510.82C22.118 511.551 23.261 512.121 24.4701 512.51C24.4701 512.36 24.5701 512.2 24.6301 512.06C23.4901 511.59 22.5601 511.16 22.0801 510.92C21.6803 510.699 21.2961 510.452 20.9301 510.18H20.9601ZM25.6801 510.35L25.9601 510C24.9601 509.67 23.6701 509.21 22.4101 508.73C22.3916 508.895 22.3256 509.051 22.2201 509.18C23.3862 509.499 24.5316 509.89 25.6501 510.35H25.6801ZM20.3501 510.98C20.2101 510.88 20.0801 510.77 19.9601 510.67L19.1501 511L31.6701 517.06C31.9298 517.078 32.1904 517.078 32.4501 517.06H33.0301L20.3501 510.98ZM56.2101 531.51L56.0501 531.66C55.9101 531.81 55.7501 531.95 55.6001 532.09L92.0701 551C92.4207 550.796 92.7551 550.565 93.0701 550.31L56.2101 531.51ZM62.8701 548.09C64.8701 548.73 66.8701 549.27 68.7801 549.71C63.4201 545.93 59.5601 543.02 56.4301 541.71C49.9212 538.629 43.5791 535.207 37.4301 531.46C36.5101 530.89 35.4301 530.27 34.3701 529.63H33.1201C35.2701 530.95 37.3501 532.27 39.1201 533.44C45.1201 537.44 42.3201 537.18 49.7001 542.94C49.9201 543.12 50.1401 543.28 50.3701 543.45C53.3101 544.723 56.1801 545.85 58.9801 546.83C54.6401 544.63 48.7401 541.2 44.9801 537.27C51.4481 539.967 57.4778 543.614 62.8701 548.09ZM36.0201 529.57H34.8901C37.5601 531.1 40.2401 532.57 42.1201 533.48C42.7701 533.8 43.5101 534.13 44.3001 534.48C41.4421 533.014 38.6769 531.374 36.0201 529.57ZM35.3701 532.25C34.6101 531.62 33.3101 530.68 31.8001 529.63H29.6101C33.1501 532.39 37.7001 536 41.5201 539.27C42.5201 539.8 43.5901 540.27 44.6201 540.8C41.5601 538 37.7301 534.19 35.3701 532.25ZM36.4801 536C33.4447 534.246 30.6455 532.112 28.1501 529.65H26.4201H26.0601C26.8001 530.43 27.5501 531.22 28.2601 531.92C31.9801 534.21 35.7901 536.37 39.6301 538.36C38.6801 537.448 37.6223 536.655 36.4801 536ZM18.9801 524.46C17.4935 523.268 15.757 522.427 13.9001 522C14.9001 522.833 16.0201 523.703 17.2601 524.61C17.7601 524.52 18.3401 524.47 18.9801 524.43V524.46ZM23.9201 524.38L21.2501 522.65C22.1501 523.15 23.2501 523.74 24.3301 524.4C24.8101 524.4 25.3301 524.4 25.8001 524.47C25.5599 524.315 25.3498 524.119 25.1801 523.89L26.1801 524.5C26.9534 524.546 27.7534 524.616 28.5801 524.71C27.4901 524.09 26.5801 523.51 25.7501 523C23.8174 521.834 22.0683 520.388 20.5601 518.71H19.5601C20.7801 519.88 21.1501 520.51 24.1501 523.47C24.1501 523.47 22.5601 522.2 19.0401 519.86C18.4101 519.44 17.8501 519.03 17.3401 518.64L14.9401 518.53L15.4801 518.72C17.3401 519.47 21.1201 523.06 22.4201 524.33L23.9201 524.38ZM27.3201 521.65C25.6301 520.52 24.3201 519.59 23.3201 518.84L21.7501 518.75C24.2148 520.749 26.8143 522.577 29.5301 524.22C28.7383 523.401 28.0001 522.533 27.3201 521.62V521.65ZM78.0201 547.22C80.2701 548.4 82.5601 549.63 84.8601 550.88C85.5823 550.743 86.294 550.556 86.9901 550.32L83.7501 548.74C81.9401 548.26 80.0201 547.75 78.0201 547.19V547.22ZM71.1101 545.22C66.8801 543.91 62.5101 542.43 58.1801 540.76C62.0678 542.622 65.7969 544.8 69.3301 547.27C71.0001 548.47 72.5901 549.64 74.1601 550.82C75.2268 550.966 76.2568 551.086 77.2501 551.18C73.9425 548.741 70.5113 546.474 66.9701 544.39C71.412 546.441 75.7295 548.751 79.9001 551.31C80.9013 551.325 81.9027 551.289 82.9001 551.2C78.5101 548.85 74.4401 546.78 71.1501 545.16L71.1101 545.22ZM12.5901 520.32C15.4766 521.292 18.2105 522.669 20.7101 524.41C21.2201 524.41 21.7101 524.41 22.3401 524.41C18.5501 521.41 17.0301 520.41 13.9801 519.58C12.8419 519.263 11.7368 518.838 10.6801 518.31L9.78008 518.23C10.3301 518.81 10.9401 519.42 11.6301 520.05C11.9301 520.07 12.2401 520.17 12.5901 520.26V520.32ZM6.53008 513.72C7.06008 513.64 7.74008 513.54 8.53008 513.45C7.37008 512.85 6.21008 512.22 5.32008 511.69C5.43008 512 5.57008 512.32 5.73009 512.69C6.07822 512.936 6.35435 513.271 6.53008 513.66V513.72ZM5.15009 511.28C5.82008 511.63 6.41009 511.93 6.86008 512.12C7.62009 512.45 8.67008 512.82 9.86008 513.25L11.1501 513.14C10.4001 512.84 9.63008 512.51 8.85008 512.14L8.59009 512.03C7.38009 511.53 6.15009 511 4.95009 510.44C5.02009 510.7 5.09009 511 5.15009 511.28ZM12.9401 513.06C13.3801 513.06 13.8201 513.06 14.2801 513.06L12.4101 512.44C12.0501 512.44 11.7001 512.44 11.4101 512.44L12.9401 513.06ZM15.8401 513.12C16.9241 513.239 17.9996 513.426 19.0601 513.68C17.8801 513.21 16.9201 512.82 16.4401 512.61C16.0193 512.411 15.5888 512.234 15.1501 512.08C14.6101 512.18 14.0901 512.26 13.5701 512.32L15.8401 513.12ZM21.0501 514.18C21.9501 514.43 22.8601 514.69 23.7601 514.96L17.1501 511.58C16.6501 511.72 16.1501 511.84 15.6301 511.95C17.3701 512.62 19.2701 513.4 21.0901 514.18H21.0501ZM45.7801 527C46.3301 527 46.8501 527 47.3401 527L36.2601 521.34L35.8201 521.84L45.7801 527ZM51.1501 526.57C51.1663 526.316 51.1663 526.063 51.1501 525.81L38.0901 519.53C37.9501 519.64 37.7801 519.77 37.5801 519.95L51.1501 526.57ZM38.9201 513.57C42.2112 514.377 45.4344 515.44 48.5601 516.75C47.9801 515.88 47.3701 515.04 46.7901 514.25C43.0801 512.87 40.0301 511.86 37.3501 511.06V511.17C37.8127 511.9 38.1886 512.682 38.4701 513.5L38.9201 513.57ZM66.5201 522.57C62.1501 520.57 58.3201 518.9 54.9301 517.48C55.2201 518.32 55.4901 519.09 55.7501 519.75C66.9301 524.74 80.0601 531.9 84.1501 538.45C85.2676 540.32 86.611 542.047 88.1501 543.59L58.3501 529.27C58.2101 529.47 58.0501 529.66 57.8801 529.86L94.8801 547.86C94.9951 547.581 95.0854 547.294 95.1501 547C95.1501 547 94.4101 535.37 66.5201 522.6V522.57ZM4.75008 509C4.75008 509.19 4.75008 509.39 4.80009 509.6C5.80009 510.11 6.93008 510.6 8.17008 511.15C8.21858 511.038 8.28254 510.933 8.36008 510.84C7.11838 510.305 5.91254 509.69 4.75008 509ZM6.54008 508L5.60008 508.25C6.54892 509.111 7.60417 509.847 8.74008 510.44C8.93179 510.283 9.13579 510.143 9.35008 510.02C9.19008 509.94 9.04008 509.88 8.92008 509.81C8.08814 509.281 7.29299 508.696 6.54008 508.06V508ZM7.54008 507.72C8.279 508.455 9.09736 509.105 9.98009 509.66C10.1701 509.56 10.3801 509.47 10.6001 509.37C9.70266 508.914 8.90407 508.285 8.25008 507.52L7.54008 507.72ZM8.96008 507.33L8.32008 507.51L10.9201 508.9C11.0476 508.992 11.1813 509.075 11.3201 509.15L11.9801 508.92L8.96008 507.33ZM10.8001 506.83L13.8001 508.31L14.4801 508.15L11.3801 506.66L10.8001 506.83ZM12.0301 506.49L12.6501 506.69C13.6379 507.015 14.5843 507.455 15.4701 508L16.0801 507.89C15.1701 507.26 14.1801 506.51 13.6301 506.09L12.0301 506.49ZM13.7101 506.03C14.3201 506.4 15.4101 507.03 16.6101 507.78L17.6101 507.66L17.3101 507.47C16.7901 507.14 15.5701 506.47 14.3101 505.86L13.7101 506.03ZM14.9101 505.8C16.2701 506.41 17.6301 507.05 18.7601 507.59H19.6501L18.6501 507.18C17.9101 506.85 16.7501 506.38 15.6501 505.9L14.9101 505.8ZM16.1501 506C17.6601 506.63 19.2601 507.27 20.3801 507.67C20.8755 507.705 21.3635 507.809 21.8301 507.98C21.9938 508.047 22.1431 508.146 22.2701 508.27C23.4901 508.62 25.0001 509.02 26.5401 509.48L26.9001 509.18C24.0401 508.32 20.6401 507.18 17.8201 506.24L16.1501 506ZM20.8901 506.73C22.7101 507.36 24.7701 508.01 27.4601 508.73L27.8301 508.49C26.0901 508.05 24.2601 507.56 22.4001 506.97L20.8901 506.73ZM26.3601 507.81L28.1501 508.31H28.2301C27.6101 508.1 26.9601 508 26.3301 507.82L26.3601 507.81ZM32.1301 511.3C31.8301 510.68 31.5001 510.04 31.1301 509.37C27.5901 508.57 29.1501 509.9 32.1001 511.31L32.1301 511.3ZM31.9601 502.3C32.4401 504.44 34.1501 509 35.1001 510.14C36.0501 511.28 37.4201 514.14 37.3201 515.07C37.2533 515.418 37.2874 515.778 37.4185 516.108C37.5496 516.437 37.7722 516.722 38.0601 516.93C38.6501 517.48 36.6301 519.31 35.9601 519.93C35.2326 520.802 34.6671 521.798 34.2901 522.87C33.9001 523.78 33.8001 524.3 34.4801 523.2C35.1601 522.1 36.6701 520.77 37.6201 519.58C38.5701 518.39 39.2801 518.82 39.7001 517.95C40.1201 517.08 39.6101 516.4 38.9001 515.52C38.653 515.254 38.4689 514.937 38.3615 514.59C38.2542 514.244 38.2263 513.878 38.2801 513.52C38.2801 512.92 37.8601 512.52 36.2801 509.52C34.976 507.128 34.1474 504.506 33.8401 501.8C33.6898 500.547 33.2921 499.337 32.6701 498.24C32.7201 496.41 35.0601 495.05 35.0601 495.05C30.0001 497.17 31.4101 500.15 31.9301 502.3H31.9601ZM36.8401 494C36.3913 494.513 35.8608 494.949 35.2701 495.29C34.7059 495.602 34.2151 496.031 33.8304 496.548C33.4458 497.066 33.1763 497.659 33.0401 498.29C33.0401 498.29 34.0401 499.65 34.4301 503.36C34.8918 505.732 35.7182 508.02 36.8801 510.14C39.7601 510.98 42.7901 511.96 45.9401 513.14C45.3914 512.413 44.9063 511.64 44.4901 510.83C42.508 507.066 40.2624 503.447 37.7701 500C37.1136 499.163 36.6832 498.172 36.5204 497.121C36.3575 496.07 36.4676 494.995 36.8401 494ZM31.5401 434C30.9823 434.077 30.4751 434.364 30.122 434.803C29.7689 435.241 29.5965 435.798 29.6401 436.36C29.6401 436.36 30.7001 434.25 31.5401 434ZM27.4701 445.91C28.7901 445.91 26.7901 446.51 28.4701 447.07C29.9001 447.57 27.0501 450.37 28.8901 449.91C30.8901 449.4 31.8901 446.91 32.2801 447.91C32.6701 448.91 31.5201 449.91 32.0901 450.18C32.6601 450.45 33.1901 448.67 34.2101 448.18C34.2101 448.18 33.4101 447.53 34.1201 444.84C34.4301 443.7 33.7101 445.14 33.1201 442.84C32.5301 440.54 31.6901 440.43 31.0001 440.01C30.3101 439.59 30.4901 436.87 30.3701 436.94C30.2501 437.01 30.1801 438.49 29.8301 439.71C29.6468 440.33 29.4161 440.935 29.1401 441.52C29.6757 441.358 30.2504 441.382 30.7701 441.59C31.4401 441.93 31.2301 442.85 31.2301 442.85C30.7428 442.622 30.1919 442.569 29.6701 442.7C28.9201 442.83 28.1801 443.3 28.0401 442.88C27.7916 442.285 27.6723 441.644 27.6901 441C27.3202 441.911 27.1366 442.886 27.1501 443.87C27.1501 445.12 26.4501 445.92 27.4701 445.88V445.91ZM6.25008 472C6.66009 474.55 6.75008 472.46 6.76009 471.84C6.75035 471.405 6.69335 470.972 6.59009 470.55C7.11281 469.762 7.71242 469.029 8.38009 468.36C9.59619 466.902 10.6994 465.355 11.6801 463.73C10.9401 464.3 10.5401 463.73 9.44009 464.19C8.34009 464.65 7.07008 468.61 6.54008 469.35C6.01009 470.09 6.01009 470.5 6.25008 472Z" fill="white"/>
</g>
</g>
<defs>
<filter id="filter0_d_7827_43805" x="1516.6" y="476.202" width="23.2451" height="23.2402" filterUnits="userSpaceOnUse" color-interpolation-filters="sRGB">
<feFlood flood-opacity="0" result="BackgroundImageFix"/>
<feColorMatrix in="SourceAlpha" type="matrix" values="0 0 0 0 0 0 0 0 0 0 0 0 0 0 0 0 0 0 127 0" result="hardAlpha"/>
<feOffset dy="4"/>
<feGaussianBlur stdDeviation="2"/>
<feComposite in2="hardAlpha" operator="out"/>
<feColorMatrix type="matrix" values="0 0 0 0 0 0 0 0 0 0 0 0 0 0 0 0 0 0 0.25 0"/>
<feBlend mode="normal" in2="BackgroundImageFix" result="effect1_dropShadow_7827_43805"/>
<feBlend mode="normal" in="SourceGraphic" in2="effect1_dropShadow_7827_43805" result="shape"/>
</filter>
<filter id="filter1_d_7827_43805" x="1260.81" y="786.305" width="23.2451" height="23.2402" filterUnits="userSpaceOnUse" color-interpolation-filters="sRGB">
<feFlood flood-opacity="0" result="BackgroundImageFix"/>
<feColorMatrix in="SourceAlpha" type="matrix" values="0 0 0 0 0 0 0 0 0 0 0 0 0 0 0 0 0 0 127 0" result="hardAlpha"/>
<feOffset dy="4"/>
<feGaussianBlur stdDeviation="2"/>
<feComposite in2="hardAlpha" operator="out"/>
<feColorMatrix type="matrix" values="0 0 0 0 0 0 0 0 0 0 0 0 0 0 0 0 0 0 0.25 0"/>
<feBlend mode="normal" in2="BackgroundImageFix" result="effect1_dropShadow_7827_43805"/>
<feBlend mode="normal" in="SourceGraphic" in2="effect1_dropShadow_7827_43805" result="shape"/>
</filter>
<filter id="filter2_d_7827_43805" x="1876.36" y="389.517" width="23.2451" height="23.2402" filterUnits="userSpaceOnUse" color-interpolation-filters="sRGB">
<feFlood flood-opacity="0" result="BackgroundImageFix"/>
<feColorMatrix in="SourceAlpha" type="matrix" values="0 0 0 0 0 0 0 0 0 0 0 0 0 0 0 0 0 0 127 0" result="hardAlpha"/>
<feOffset dy="4"/>
<feGaussianBlur stdDeviation="2"/>
<feComposite in2="hardAlpha" operator="out"/>
<feColorMatrix type="matrix" values="0 0 0 0 0 0 0 0 0 0 0 0 0 0 0 0 0 0 0.25 0"/>
<feBlend mode="normal" in2="BackgroundImageFix" result="effect1_dropShadow_7827_43805"/>
<feBlend mode="normal" in="SourceGraphic" in2="effect1_dropShadow_7827_43805" result="shape"/>
</filter>
<filter id="filter3_d_7827_43805" x="1718.33" y="404.386" width="27.0576" height="27.0508" filterUnits="userSpaceOnUse" color-interpolation-filters="sRGB">
<feFlood flood-opacity="0" result="BackgroundImageFix"/>
<feColorMatrix in="SourceAlpha" type="matrix" values="0 0 0 0 0 0 0 0 0 0 0 0 0 0 0 0 0 0 127 0" result="hardAlpha"/>
<feOffset dy="4"/>
<feGaussianBlur stdDeviation="2"/>
<feComposite in2="hardAlpha" operator="out"/>
<feColorMatrix type="matrix" values="0 0 0 0 0 0 0 0 0 0 0 0 0 0 0 0 0 0 0.25 0"/>
<feBlend mode="normal" in2="BackgroundImageFix" result="effect1_dropShadow_7827_43805"/>
<feBlend mode="normal" in="SourceGraphic" in2="effect1_dropShadow_7827_43805" result="shape"/>
</filter>
<filter id="filter4_d_7827_43805" x="1821.08" y="695.287" width="27.0576" height="27.0508" filterUnits="userSpaceOnUse" color-interpolation-filters="sRGB">
<feFlood flood-opacity="0" result="BackgroundImageFix"/>
<feColorMatrix in="SourceAlpha" type="matrix" values="0 0 0 0 0 0 0 0 0 0 0 0 0 0 0 0 0 0 127 0" result="hardAlpha"/>
<feOffset dy="4"/>
<feGaussianBlur stdDeviation="2"/>
<feComposite in2="hardAlpha" operator="out"/>
<feColorMatrix type="matrix" values="0 0 0 0 0 0 0 0 0 0 0 0 0 0 0 0 0 0 0.25 0"/>
<feBlend mode="normal" in2="BackgroundImageFix" result="effect1_dropShadow_7827_43805"/>
<feBlend mode="normal" in="SourceGraphic" in2="effect1_dropShadow_7827_43805" result="shape"/>
</filter>
<filter id="filter5_d_7827_43805" x="1704.44" y="587.028" width="27.0576" height="27.0508" filterUnits="userSpaceOnUse" color-interpolation-filters="sRGB">
<feFlood flood-opacity="0" result="BackgroundImageFix"/>
<feColorMatrix in="SourceAlpha" type="matrix" values="0 0 0 0 0 0 0 0 0 0 0 0 0 0 0 0 0 0 127 0" result="hardAlpha"/>
<feOffset dy="4"/>
<feGaussianBlur stdDeviation="2"/>
<feComposite in2="hardAlpha" operator="out"/>
<feColorMatrix type="matrix" values="0 0 0 0 0 0 0 0 0 0 0 0 0 0 0 0 0 0 0.25 0"/>
<feBlend mode="normal" in2="BackgroundImageFix" result="effect1_dropShadow_7827_43805"/>
<feBlend mode="normal" in="SourceGraphic" in2="effect1_dropShadow_7827_43805" result="shape"/>
</filter>
<filter id="filter6_d_7827_43805" x="1373.73" y="790.291" width="27.0576" height="27.0508" filterUnits="userSpaceOnUse" color-interpolation-filters="sRGB">
<feFlood flood-opacity="0" result="BackgroundImageFix"/>
<feColorMatrix in="SourceAlpha" type="matrix" values="0 0 0 0 0 0 0 0 0 0 0 0 0 0 0 0 0 0 127 0" result="hardAlpha"/>
<feOffset dy="4"/>
<feGaussianBlur stdDeviation="2"/>
<feComposite in2="hardAlpha" operator="out"/>
<feColorMatrix type="matrix" values="0 0 0 0 0 0 0 0 0 0 0 0 0 0 0 0 0 0 0.25 0"/>
<feBlend mode="normal" in2="BackgroundImageFix" result="effect1_dropShadow_7827_43805"/>
<feBlend mode="normal" in="SourceGraphic" in2="effect1_dropShadow_7827_43805" result="shape"/>
</filter>
<filter id="filter7_d_7827_43805" x="1744.23" y="475.47" width="30.8682" height="30.8604" filterUnits="userSpaceOnUse" color-interpolation-filters="sRGB">
<feFlood flood-opacity="0" result="BackgroundImageFix"/>
<feColorMatrix in="SourceAlpha" type="matrix" values="0 0 0 0 0 0 0 0 0 0 0 0 0 0 0 0 0 0 127 0" result="hardAlpha"/>
<feOffset dy="4"/>
<feGaussianBlur stdDeviation="2"/>
<feComposite in2="hardAlpha" operator="out"/>
<feColorMatrix type="matrix" values="0 0 0 0 0 0 0 0 0 0 0 0 0 0 0 0 0 0 0.25 0"/>
<feBlend mode="normal" in2="BackgroundImageFix" result="effect1_dropShadow_7827_43805"/>
<feBlend mode="normal" in="SourceGraphic" in2="effect1_dropShadow_7827_43805" result="shape"/>
</filter>
<filter id="filter8_d_7827_43805" x="1543.4" y="881.685" width="30.8682" height="30.8604" filterUnits="userSpaceOnUse" color-interpolation-filters="sRGB">
<feFlood flood-opacity="0" result="BackgroundImageFix"/>
<feColorMatrix in="SourceAlpha" type="matrix" values="0 0 0 0 0 0 0 0 0 0 0 0 0 0 0 0 0 0 127 0" result="hardAlpha"/>
<feOffset dy="4"/>
<feGaussianBlur stdDeviation="2"/>
<feComposite in2="hardAlpha" operator="out"/>
<feColorMatrix type="matrix" values="0 0 0 0 0 0 0 0 0 0 0 0 0 0 0 0 0 0 0.25 0"/>
<feBlend mode="normal" in2="BackgroundImageFix" result="effect1_dropShadow_7827_43805"/>
<feBlend mode="normal" in="SourceGraphic" in2="effect1_dropShadow_7827_43805" result="shape"/>
</filter>
<filter id="filter9_d_7827_43805" x="1503.04" y="657.61" width="30.8682" height="30.8604" filterUnits="userSpaceOnUse" color-interpolation-filters="sRGB">
<feFlood flood-opacity="0" result="BackgroundImageFix"/>
<feColorMatrix in="SourceAlpha" type="matrix" values="0 0 0 0 0 0 0 0 0 0 0 0 0 0 0 0 0 0 127 0" result="hardAlpha"/>
<feOffset dy="4"/>
<feGaussianBlur stdDeviation="2"/>
<feComposite in2="hardAlpha" operator="out"/>
<feColorMatrix type="matrix" values="0 0 0 0 0 0 0 0 0 0 0 0 0 0 0 0 0 0 0.25 0"/>
<feBlend mode="normal" in2="BackgroundImageFix" result="effect1_dropShadow_7827_43805"/>
<feBlend mode="normal" in="SourceGraphic" in2="effect1_dropShadow_7827_43805" result="shape"/>
</filter>
<filter id="filter10_d_7827_43805" x="1431.19" y="682.993" width="30.8682" height="30.8604" filterUnits="userSpaceOnUse" color-interpolation-filters="sRGB">
<feFlood flood-opacity="0" result="BackgroundImageFix"/>
<feColorMatrix in="SourceAlpha" type="matrix" values="0 0 0 0 0 0 0 0 0 0 0 0 0 0 0 0 0 0 127 0" result="hardAlpha"/>
<feOffset dy="4"/>
<feGaussianBlur stdDeviation="2"/>
<feComposite in2="hardAlpha" operator="out"/>
<feColorMatrix type="matrix" values="0 0 0 0 0 0 0 0 0 0 0 0 0 0 0 0 0 0 0.25 0"/>
<feBlend mode="normal" in2="BackgroundImageFix" result="effect1_dropShadow_7827_43805"/>
<feBlend mode="normal" in="SourceGraphic" in2="effect1_dropShadow_7827_43805" result="shape"/>
</filter>
<filter id="filter11_d_7827_43805" x="1905.33" y="535.707" width="30.8682" height="30.8604" filterUnits="userSpaceOnUse" color-interpolation-filters="sRGB">
<feFlood flood-opacity="0" result="BackgroundImageFix"/>
<feColorMatrix in="SourceAlpha" type="matrix" values="0 0 0 0 0 0 0 0 0 0 0 0 0 0 0 0 0 0 127 0" result="hardAlpha"/>
<feOffset dy="4"/>
<feGaussianBlur stdDeviation="2"/>
<feComposite in2="hardAlpha" operator="out"/>
<feColorMatrix type="matrix" values="0 0 0 0 0 0 0 0 0 0 0 0 0 0 0 0 0 0 0.25 0"/>
<feBlend mode="normal" in2="BackgroundImageFix" result="effect1_dropShadow_7827_43805"/>
<feBlend mode="normal" in="SourceGraphic" in2="effect1_dropShadow_7827_43805" result="shape"/>
</filter>
<filter id="filter12_d_7827_43805" x="389.884" y="202.156" width="23.2451" height="23.2402" filterUnits="userSpaceOnUse" color-interpolation-filters="sRGB">
<feFlood flood-opacity="0" result="BackgroundImageFix"/>
<feColorMatrix in="SourceAlpha" type="matrix" values="0 0 0 0 0 0 0 0 0 0 0 0 0 0 0 0 0 0 127 0" result="hardAlpha"/>
<feOffset dy="4"/>
<feGaussianBlur stdDeviation="2"/>
<feComposite in2="hardAlpha" operator="out"/>
<feColorMatrix type="matrix" values="0 0 0 0 0 0 0 0 0 0 0 0 0 0 0 0 0 0 0.25 0"/>
<feBlend mode="normal" in2="BackgroundImageFix" result="effect1_dropShadow_7827_43805"/>
<feBlend mode="normal" in="SourceGraphic" in2="effect1_dropShadow_7827_43805" result="shape"/>
</filter>
<filter id="filter13_d_7827_43805" x="30.1182" y="288.842" width="23.2451" height="23.2402" filterUnits="userSpaceOnUse" color-interpolation-filters="sRGB">
<feFlood flood-opacity="0" result="BackgroundImageFix"/>
<feColorMatrix in="SourceAlpha" type="matrix" values="0 0 0 0 0 0 0 0 0 0 0 0 0 0 0 0 0 0 127 0" result="hardAlpha"/>
<feOffset dy="4"/>
<feGaussianBlur stdDeviation="2"/>
<feComposite in2="hardAlpha" operator="out"/>
<feColorMatrix type="matrix" values="0 0 0 0 0 0 0 0 0 0 0 0 0 0 0 0 0 0 0.25 0"/>
<feBlend mode="normal" in2="BackgroundImageFix" result="effect1_dropShadow_7827_43805"/>
<feBlend mode="normal" in="SourceGraphic" in2="effect1_dropShadow_7827_43805" result="shape"/>
</filter>
<filter id="filter14_d_7827_43805" x="184.341" y="270.162" width="27.0576" height="27.0508" filterUnits="userSpaceOnUse" color-interpolation-filters="sRGB">
<feFlood flood-opacity="0" result="BackgroundImageFix"/>
<feColorMatrix in="SourceAlpha" type="matrix" values="0 0 0 0 0 0 0 0 0 0 0 0 0 0 0 0 0 0 127 0" result="hardAlpha"/>
<feOffset dy="4"/>
<feGaussianBlur stdDeviation="2"/>
<feComposite in2="hardAlpha" operator="out"/>
<feColorMatrix type="matrix" values="0 0 0 0 0 0 0 0 0 0 0 0 0 0 0 0 0 0 0.25 0"/>
<feBlend mode="normal" in2="BackgroundImageFix" result="effect1_dropShadow_7827_43805"/>
<feBlend mode="normal" in="SourceGraphic" in2="effect1_dropShadow_7827_43805" result="shape"/>
</filter>
<filter id="filter15_d_7827_43805" x="81.585" y="-20.7393" width="27.0576" height="27.0508" filterUnits="userSpaceOnUse" color-interpolation-filters="sRGB">
<feFlood flood-opacity="0" result="BackgroundImageFix"/>
<feColorMatrix in="SourceAlpha" type="matrix" values="0 0 0 0 0 0 0 0 0 0 0 0 0 0 0 0 0 0 127 0" result="hardAlpha"/>
<feOffset dy="4"/>
<feGaussianBlur stdDeviation="2"/>
<feComposite in2="hardAlpha" operator="out"/>
<feColorMatrix type="matrix" values="0 0 0 0 0 0 0 0 0 0 0 0 0 0 0 0 0 0 0.25 0"/>
<feBlend mode="normal" in2="BackgroundImageFix" result="effect1_dropShadow_7827_43805"/>
<feBlend mode="normal" in="SourceGraphic" in2="effect1_dropShadow_7827_43805" result="shape"/>
</filter>
<filter id="filter16_d_7827_43805" x="198.227" y="87.5195" width="27.0576" height="27.0508" filterUnits="userSpaceOnUse" color-interpolation-filters="sRGB">
<feFlood flood-opacity="0" result="BackgroundImageFix"/>
<feColorMatrix in="SourceAlpha" type="matrix" values="0 0 0 0 0 0 0 0 0 0 0 0 0 0 0 0 0 0 127 0" result="hardAlpha"/>
<feOffset dy="4"/>
<feGaussianBlur stdDeviation="2"/>
<feComposite in2="hardAlpha" operator="out"/>
<feColorMatrix type="matrix" values="0 0 0 0 0 0 0 0 0 0 0 0 0 0 0 0 0 0 0.25 0"/>
<feBlend mode="normal" in2="BackgroundImageFix" result="effect1_dropShadow_7827_43805"/>
<feBlend mode="normal" in="SourceGraphic" in2="effect1_dropShadow_7827_43805" result="shape"/>
</filter>
<filter id="filter17_d_7827_43805" x="154.634" y="195.269" width="30.8682" height="30.8604" filterUnits="userSpaceOnUse" color-interpolation-filters="sRGB">
<feFlood flood-opacity="0" result="BackgroundImageFix"/>
<feColorMatrix in="SourceAlpha" type="matrix" values="0 0 0 0 0 0 0 0 0 0 0 0 0 0 0 0 0 0 127 0" result="hardAlpha"/>
<feOffset dy="4"/>
<feGaussianBlur stdDeviation="2"/>
<feComposite in2="hardAlpha" operator="out"/>
<feColorMatrix type="matrix" values="0 0 0 0 0 0 0 0 0 0 0 0 0 0 0 0 0 0 0.25 0"/>
<feBlend mode="normal" in2="BackgroundImageFix" result="effect1_dropShadow_7827_43805"/>
<feBlend mode="normal" in="SourceGraphic" in2="effect1_dropShadow_7827_43805" result="shape"/>
</filter>
<filter id="filter18_d_7827_43805" x="395.814" y="13.1279" width="30.8682" height="30.8604" filterUnits="userSpaceOnUse" color-interpolation-filters="sRGB">
<feFlood flood-opacity="0" result="BackgroundImageFix"/>
<feColorMatrix in="SourceAlpha" type="matrix" values="0 0 0 0 0 0 0 0 0 0 0 0 0 0 0 0 0 0 127 0" result="hardAlpha"/>
<feOffset dy="4"/>
<feGaussianBlur stdDeviation="2"/>
<feComposite in2="hardAlpha" operator="out"/>
<feColorMatrix type="matrix" values="0 0 0 0 0 0 0 0 0 0 0 0 0 0 0 0 0 0 0.25 0"/>
<feBlend mode="normal" in2="BackgroundImageFix" result="effect1_dropShadow_7827_43805"/>
<feBlend mode="normal" in="SourceGraphic" in2="effect1_dropShadow_7827_43805" result="shape"/>
</filter>
<filter id="filter19_d_7827_43805" x="467.674" y="-12.2549" width="30.8682" height="30.8604" filterUnits="userSpaceOnUse" color-interpolation-filters="sRGB">
<feFlood flood-opacity="0" result="BackgroundImageFix"/>
<feColorMatrix in="SourceAlpha" type="matrix" values="0 0 0 0 0 0 0 0 0 0 0 0 0 0 0 0 0 0 127 0" result="hardAlpha"/>
<feOffset dy="4"/>
<feGaussianBlur stdDeviation="2"/>
<feComposite in2="hardAlpha" operator="out"/>
<feColorMatrix type="matrix" values="0 0 0 0 0 0 0 0 0 0 0 0 0 0 0 0 0 0 0.25 0"/>
<feBlend mode="normal" in2="BackgroundImageFix" result="effect1_dropShadow_7827_43805"/>
<feBlend mode="normal" in="SourceGraphic" in2="effect1_dropShadow_7827_43805" result="shape"/>
</filter>
<filter id="filter20_d_7827_43805" x="-6.47168" y="135.031" width="30.8682" height="30.8604" filterUnits="userSpaceOnUse" color-interpolation-filters="sRGB">
<feFlood flood-opacity="0" result="BackgroundImageFix"/>
<feColorMatrix in="SourceAlpha" type="matrix" values="0 0 0 0 0 0 0 0 0 0 0 0 0 0 0 0 0 0 127 0" result="hardAlpha"/>
<feOffset dy="4"/>
<feGaussianBlur stdDeviation="2"/>
<feComposite in2="hardAlpha" operator="out"/>
<feColorMatrix type="matrix" values="0 0 0 0 0 0 0 0 0 0 0 0 0 0 0 0 0 0 0.25 0"/>
<feBlend mode="normal" in2="BackgroundImageFix" result="effect1_dropShadow_7827_43805"/>
<feBlend mode="normal" in="SourceGraphic" in2="effect1_dropShadow_7827_43805" result="shape"/>
</filter>
<filter id="filter21_d_7827_43805" x="-5" y="479" width="1928" height="326" filterUnits="userSpaceOnUse" color-interpolation-filters="sRGB">
<feFlood flood-opacity="0" result="BackgroundImageFix"/>
<feColorMatrix in="SourceAlpha" type="matrix" values="0 0 0 0 0 0 0 0 0 0 0 0 0 0 0 0 0 0 127 0" result="hardAlpha"/>
<feOffset/>
<feGaussianBlur stdDeviation="2"/>
<feComposite in2="hardAlpha" operator="out"/>
<feColorMatrix type="matrix" values="0 0 0 0 0 0 0 0 0 0 0 0 0 0 0 0 0 0 0.25 0"/>
<feBlend mode="normal" in2="BackgroundImageFix" result="effect1_dropShadow_7827_43805"/>
<feBlend mode="normal" in="SourceGraphic" in2="effect1_dropShadow_7827_43805" result="shape"/>
</filter>
<filter id="filter22_d_7827_43805" x="-5" y="479" width="1928" height="436.249" filterUnits="userSpaceOnUse" color-interpolation-filters="sRGB">
<feFlood flood-opacity="0" result="BackgroundImageFix"/>
<feColorMatrix in="SourceAlpha" type="matrix" values="0 0 0 0 0 0 0 0 0 0 0 0 0 0 0 0 0 0 127 0" result="hardAlpha"/>
<feOffset/>
<feGaussianBlur stdDeviation="2"/>
<feComposite in2="hardAlpha" operator="out"/>
<feColorMatrix type="matrix" values="0 0 0 0 0 0 0 0 0 0 0 0 0 0 0 0 0 0 0.25 0"/>
<feBlend mode="normal" in2="BackgroundImageFix" result="effect1_dropShadow_7827_43805"/>
<feBlend mode="normal" in="SourceGraphic" in2="effect1_dropShadow_7827_43805" result="shape"/>
</filter>
<linearGradient id="paint0_linear_7827_43805" x1="27.5" y1="572.534" x2="2067.51" y2="572.534" gradientUnits="userSpaceOnUse">
<stop stop-color="#E066A1"/>
<stop offset="1" stop-color="#FECF8B"/>
</linearGradient>
<linearGradient id="paint1_linear_7827_43805" x1="27.5" y1="611.788" x2="2067.51" y2="611.788" gradientUnits="userSpaceOnUse">
<stop stop-color="#B87FC5"/>
<stop offset="0.53125" stop-color="#6B3E95" stop-opacity="0.85"/>
<stop offset="1" stop-color="#4D2F8F"/>
</linearGradient>
<linearGradient id="paint2_linear_7827_43805" x1="27.5" y1="662.98" x2="2067.51" y2="662.98" gradientUnits="userSpaceOnUse">
<stop stop-color="#FDC591"/>
<stop offset="1" stop-color="#B455AA"/>
</linearGradient>
<clipPath id="clip0_7827_43805">
<rect width="1920" height="891" fill="white"/>
</clipPath>
<clipPath id="clip1_7827_43805">
<rect width="123.4" height="97.95" fill="white" transform="translate(537 486)"/>
</clipPath>
<clipPath id="clip2_7827_43805">
<rect width="97.15" height="122.26" fill="white" transform="matrix(-1 0 0 1 96.1504 433)"/>
</clipPath>
</defs>
</svg>
