<svg width="414" height="962" viewBox="0 0 414 962" fill="none" xmlns="http://www.w3.org/2000/svg">
<g clip-path="url(#clip0_7946_41536)">
<rect y="283" width="414" height="491" fill="url(#paint0_linear_7946_41536)"/>
<path d="M0 327.499C16.5 502.5 372 137.5 414 371V50H0V327.499Z" fill="url(#paint1_linear_7946_41536)"/>
<path d="M0 684.5C56 782 156.5 561.5 414 641V962H0V684.5Z" fill="url(#paint2_linear_7946_41536)"/>
<g clip-path="url(#clip1_7946_41536)">
<path d="M0.464241 667.97C0.54916 667.902 0.883183 667.298 1.06435 667.152C1.24551 667.005 1.47762 666.655 1.7154 666.469C2.00761 666.074 2.32333 665.697 2.66085 665.34C3.22052 663.875 3.85929 662.441 4.57438 661.045C5.6557 659.177 5.89914 659.138 6.63511 658.556C7.38108 658.086 8.05915 657.516 8.65055 656.863C8.979 656.442 9.33253 656.04 9.70922 655.661C10.3065 655.093 11.07 654.729 11.8888 654.623C12.7195 654.392 13.5747 654.261 14.4364 654.233C14.0345 652.738 13.0664 649.216 13.4004 648.093C13.7344 646.97 14.0118 645.564 16.1801 645.096C16.5582 644.978 16.9578 644.947 17.3497 645.003C17.7416 645.06 18.1157 645.204 18.4447 645.423H18.5353C19.1807 645.423 19.1014 645.954 19.5147 646.676C20.0015 647.5 20.0808 647.692 20.0242 648.369C20.0185 648.446 20.0185 648.524 20.0242 648.601C20.2183 648.914 20.4745 649.185 20.7772 649.397C20.7772 649.397 20.5564 649.306 20.3073 649.176C20.4443 649.357 20.5496 649.559 20.6186 649.775C20.8564 650.52 20.5847 650.903 20.5394 651.423C20.4941 651.942 20.4092 652.28 20.4148 651.423C20.4138 651.273 20.3986 651.124 20.3695 650.977C20.2964 651.366 20.1767 651.745 20.0129 652.105C19.492 653.296 20.0129 653.234 20.4092 653.669C20.8055 654.103 22.4529 654.007 23.9815 654.724C25.8713 655.513 27.4018 656.97 28.2784 658.816C29.2126 660.927 30.543 661.243 31.913 663.19C33.2831 665.137 33.9228 665.701 34.3701 669.082C34.3983 669.414 34.3983 669.748 34.3701 670.081V670.058C34.9362 672.756 35.3098 676.024 35.7967 676.644C36.4478 677.463 36.4931 677.688 36.5836 678.806C36.6629 679.799 37.0196 680.025 36.5836 680.623C36.1477 681.221 35.5023 682.977 35.1513 682.474C34.8003 681.972 35.3325 681.786 34.9815 680.832C34.7779 680.273 34.5338 679.73 34.2512 679.207C34.4762 679.668 34.5832 680.178 34.5625 680.691C34.4606 681.323 34.1096 681.289 34.036 680.578C33.9624 679.867 33.1812 679.568 33.2038 678.885C33.2265 678.202 33.5888 675.753 32.9774 674.071C32.8496 673.766 32.7437 673.453 32.6603 673.134C32.2159 673.889 31.8371 674.68 31.5281 675.499C30.8805 676.464 30.3215 677.486 29.858 678.552C29.3315 679.901 28.1596 680.809 27.7746 681.521C27.5425 681.933 26.6083 680.792 26.6083 680.792C26.6083 680.792 25.6403 680.996 26.7102 682.215C28.1515 683.863 29.2813 685.758 30.0448 687.808C30.4014 688.778 30.9393 690.55 31.4601 692.114C44.5378 697.419 52.5486 702.752 54.2187 706.957C55.1982 708.661 55.2434 710.467 54.4339 711.596C53.6243 712.725 49.6614 715.953 36.4478 712.296C23.2342 708.639 6.39733 698.491 3.25528 690.02C2.36079 687.819 3.08545 686.634 3.08545 686.634H3.45343H4.37623H4.89141H5.64437L6.11427 686.216L6.57283 685.804C10.3944 686.084 14.1835 686.702 17.8955 687.65C17.5162 687.001 17.0803 686.318 16.5708 685.612C14.4931 682.706 13.9892 681.3 14.7308 679.799C15.5348 678.157 15.6253 678.004 15.6253 678.004C15.5092 677.94 15.3789 677.905 15.246 677.903C15.0874 677.882 14.9361 677.824 14.8044 677.734C15.0032 677.364 15.1499 676.969 15.2404 676.56C15.4781 675.341 17.6068 671.565 19.7241 669.968C20.5761 669.216 21.1948 668.237 21.5075 667.146C20.2846 666.548 20.2846 665.656 19.1863 665.21C17.9613 664.524 16.7814 663.76 15.6536 662.924C15.457 662.78 15.268 662.626 15.0875 662.462C14.4226 661.972 13.82 661.403 13.2929 660.769C12.4833 660.097 11.6567 659.668 11.1189 660.108C9.83377 661.147 9.2733 661.13 8.49769 661.604C7.72209 662.078 7.2805 662.383 7.2805 662.383C7.05971 663.167 5.07824 665.447 4.40454 666.209C4.44802 666.322 4.47657 666.439 4.48946 666.559C4.52439 666.848 4.52439 667.14 4.48946 667.428C4.46666 667.692 4.42504 667.954 4.36491 668.213C4.21718 668.529 4.11064 668.863 4.04787 669.206C4.04787 669.415 3.77613 670.182 3.59496 670.165C3.4138 670.148 3.30624 670.137 3.22132 669.94C3.21422 669.546 3.30774 669.158 3.49306 668.811C3.59539 668.603 3.63097 668.368 3.59496 668.139C3.561 668.066 3.53269 667.959 3.3855 668.207C3.2383 668.455 2.6382 669.099 2.5646 669.302C2.37098 669.699 2.13971 670.077 1.87392 670.431C1.70408 670.639 1.59085 671.08 1.30779 671.209C1.02472 671.339 0.911488 671.288 0.894505 671.136C0.926254 670.836 1.04866 670.553 1.24551 670.323C1.44737 669.959 1.62513 669.582 1.77767 669.195C1.8909 669.014 2.20794 668.67 2.12868 668.658C2.04942 668.647 1.90222 668.805 1.8173 668.98C1.73238 669.155 1.50593 669.663 1.39836 669.821C1.23388 669.995 1.09129 670.188 0.973763 670.397C0.928471 670.572 0.781277 670.893 0.588791 670.899C0.396305 670.905 0.33403 670.786 0.452919 670.532C0.571808 670.278 0.67371 669.968 0.758633 669.753C0.890724 669.433 1.04391 669.122 1.2172 668.822C1.40403 668.551 1.60783 668.382 1.56821 668.331C1.52858 668.28 1.42667 668.382 1.34175 668.529C1.16396 668.762 1.00495 669.009 0.866196 669.268C0.768333 669.571 0.651096 669.867 0.515194 670.154C0.447258 670.273 0.311382 670.295 0.260429 670.244C0.20948 670.194 0.215141 670.041 0.260429 669.844C0.318001 669.502 0.405132 669.166 0.520851 668.839C0.63974 668.608 1.08699 668.004 1.08699 668.004C1.08699 668.004 0.786934 668.309 0.520851 668.63C0.339687 668.845 0.283077 669.042 0.192497 669.07C0.101917 669.099 0.0169945 669.008 0.0339813 668.884C0.143848 668.565 0.288109 668.258 0.464241 667.97ZM33.8322 674.088C34.3474 677.271 33.4189 677.282 34.4606 677.649C35.5023 678.016 34.8456 678.574 35.44 678.913C36.0345 679.252 35.1683 681.481 35.3948 682.373C35.7078 681.699 36.0653 681.047 36.4648 680.42C36.6686 680.268 36.6063 679.709 36.4648 679.212C36.3232 678.716 36.4648 677.909 36.1647 677.519C35.564 676.972 35.1904 676.222 35.1174 675.414C34.8173 673.76 34.2851 671.215 34.2115 670.498C34.1379 669.782 34.1266 666.79 32.5131 664.454C30.9789 662.242 29.2295 661.717 27.9841 659.104C26.7386 656.491 24.9949 655.819 24.9949 655.819C24.9949 655.819 27.2594 659.025 27.4009 660.453C27.5425 661.88 27.9671 663.359 30.0844 664.296C32.2018 665.233 31.0921 665.391 31.3412 666.401C31.5903 667.411 33.317 670.91 33.8322 674.088ZM26.6253 680.555C26.6253 680.555 27.3273 681.272 27.4915 681.289C27.6557 681.306 28.018 680.725 28.5558 680.2C29.0916 679.502 29.5068 678.72 29.7844 677.886C30.1627 677.094 30.6137 676.338 31.1318 675.628C31.302 675.309 31.4477 674.977 31.5677 674.635C31.6694 674.365 31.7905 674.103 31.93 673.851C32.0772 673.602 32.4961 672.722 32.4961 672.722C32.3093 672.355 31.5281 669.336 31.5281 669.336C31.3469 669.488 31.2733 670.651 29.8919 670.464C28.5106 670.278 29.2126 671.164 30.6732 671.926C32.1338 672.688 31.7715 673.309 30.9223 673.292C30.7269 673.266 30.5283 673.303 30.3562 673.399C29.5353 673.484 28.8955 673.631 29.5749 673.885C30.9506 674.409 26.8178 673.964 28.8389 674.63C30.86 675.295 26.0082 675.442 27.1405 675.758C28.2728 676.074 28.9974 677.734 27.9614 677.169C26.9254 676.605 23.387 676.927 25.2892 677.169C27.1915 677.412 27.2594 678.8 26.212 678.501C25.1647 678.202 23.6078 678.208 24.8137 678.874C26.0196 679.54 26.0762 680.211 26.6253 680.555ZM30.158 688.812C29.503 686.917 28.5763 685.126 27.4066 683.496C26.1215 681.837 25.9516 681.6 25.9516 681.6C25.9516 681.6 25.4591 681.554 25.6799 682.508C25.9007 683.462 28.3237 686.938 29.4673 689.941C30.6109 692.943 31.0525 694.941 31.3865 695.229C31.7205 695.517 32.5981 695.404 32.1734 696.019C31.7488 696.634 32.5358 696.775 32.1395 697.56C31.7432 698.344 32.1395 698.739 31.3978 699.716C30.6562 700.692 30.7751 700.907 30.2259 701.409C29.6768 701.911 28.2388 702.538 29.2182 702.656C29.4784 702.556 29.7098 702.393 29.8919 702.182C30.124 701.866 30.6336 701.719 30.8374 701.561C31.3778 701.173 31.8957 700.755 32.3886 700.308C32.7834 699.947 33.1505 699.556 33.4869 699.14C33.5435 698.943 33.8379 698.576 33.719 698.181C33.5468 697.786 33.3384 697.408 33.0963 697.052C32.8688 696.649 32.7407 696.199 32.7226 695.737C32.7226 695.116 32.1565 694.924 32.0489 694.501C31.9413 694.078 30.4524 689.766 30.158 688.812ZM13.7401 688.891C14.0265 689.064 14.3255 689.215 14.6346 689.343C14.6841 689.232 14.7409 689.124 14.8044 689.021C14.1967 688.778 13.6252 688.454 13.106 688.056C13.0342 688.139 12.9524 688.213 12.8626 688.276C13.1289 688.508 13.4171 688.714 13.7231 688.891H13.7401ZM12.4323 688.558C12.3555 688.604 12.2761 688.646 12.1946 688.682L12.5003 688.919C13.0879 689.332 13.735 689.654 14.4195 689.873C14.4195 689.789 14.4761 689.698 14.51 689.619C13.8647 689.354 13.3381 689.111 13.0664 688.976C12.8401 688.852 12.6226 688.712 12.4153 688.558H12.4323ZM15.1045 688.654L15.263 688.457C14.6969 688.27 13.9666 688.011 13.2532 687.74C13.2427 687.833 13.2054 687.921 13.1457 687.994C13.8058 688.174 14.4543 688.395 15.0875 688.654H15.1045ZM12.087 689.01C12.0077 688.953 11.9341 688.891 11.8662 688.835L11.4076 689.021L18.4956 692.441C18.6427 692.451 18.7902 692.451 18.9372 692.441H19.2656L12.087 689.01ZM32.3886 700.596L32.298 700.681C32.2187 700.766 32.1282 700.845 32.0432 700.924L52.6902 711.596C52.8887 711.481 53.078 711.351 53.2563 711.206L32.3886 700.596ZM36.159 709.954C37.2913 710.315 38.4236 710.619 39.5049 710.868C36.4704 708.734 34.2851 707.092 32.5131 706.353C28.8282 704.614 25.2377 702.683 21.7566 700.568C21.2357 700.246 20.6243 699.896 20.0242 699.535H19.3165C20.5337 700.28 21.7113 701.025 22.7133 701.685C26.1101 703.943 24.525 703.796 28.703 707.047C28.8276 707.149 28.9521 707.239 29.0824 707.335C30.7468 708.053 32.3716 708.689 33.9568 709.242C31.4998 708.001 28.1596 706.065 26.0309 703.847C29.6927 705.369 33.1063 707.427 36.159 709.954ZM20.9583 699.501H20.3186C21.8302 700.365 23.3474 701.194 24.4117 701.708C24.7797 701.889 25.1987 702.075 25.6459 702.272C24.0279 701.445 22.4624 700.52 20.9583 699.501ZM20.5903 701.014C20.1601 700.658 19.4241 700.128 18.5692 699.535H17.3294C19.3335 701.093 21.9094 703.13 24.0721 704.976C24.6382 705.275 25.244 705.54 25.8271 705.839C24.0947 704.259 21.9264 702.109 20.5903 701.014ZM21.2187 703.13C19.5003 702.14 17.9156 700.936 16.5028 699.547H15.5234H15.3196C15.7386 699.987 16.1632 700.433 16.5651 700.828C18.6711 702.12 20.8281 703.339 23.0021 704.462C22.4642 703.947 21.8654 703.5 21.2187 703.13ZM11.3114 696.617C10.4697 695.945 9.48666 695.47 8.43542 695.229C9.00155 695.699 9.63562 696.19 10.3376 696.702C10.6207 696.651 10.9491 696.623 11.3114 696.601V696.617ZM14.1081 696.572L12.5965 695.596C13.106 695.878 13.7288 696.211 14.3402 696.584C14.6119 696.584 14.9063 696.584 15.1724 696.623C15.0365 696.536 14.9175 696.425 14.8214 696.296L15.3876 696.64C15.8254 696.666 16.2783 696.706 16.7463 696.759C16.1292 696.409 15.614 696.081 15.1441 695.793C14.0499 695.136 13.0597 694.32 12.2059 693.372H11.6397C12.3304 694.033 12.5399 694.388 14.2383 696.059C14.2383 696.059 13.3381 695.342 11.3454 694.021C10.9887 693.784 10.6717 693.553 10.3829 693.333L9.0242 693.271L9.32991 693.378C10.3829 693.801 12.5229 695.827 13.2589 696.544L14.1081 696.572ZM16.0329 695.032C15.0762 694.394 14.3345 693.869 13.7684 693.446L12.8796 693.395C14.2749 694.523 15.7466 695.555 17.2841 696.482C16.8359 696.02 16.4179 695.53 16.0329 695.015V695.032ZM44.736 709.463C46.0098 710.128 47.3062 710.823 48.6083 711.528C49.0172 711.451 49.4202 711.345 49.8142 711.212L47.9799 710.32C46.9552 710.049 45.8683 709.762 44.736 709.446V709.463ZM40.824 708.334C38.4292 707.594 35.9552 706.759 33.5039 705.817C35.7049 706.868 37.816 708.097 39.8163 709.491C40.7617 710.168 41.6619 710.828 42.5507 711.494C43.1546 711.577 43.7377 711.645 44.3001 711.697C42.4275 710.321 40.485 709.042 38.4802 707.865C40.9949 709.023 43.4392 710.327 45.8003 711.771C46.3671 711.78 46.9341 711.759 47.4987 711.709C45.0134 710.382 42.7092 709.214 40.8466 708.3L40.824 708.334ZM7.69378 694.281C9.32795 694.83 10.8757 695.607 12.2908 696.589C12.5795 696.589 12.8569 696.589 13.2136 696.589C11.0679 694.896 10.2074 694.332 8.48071 693.863C7.83633 693.685 7.2107 693.445 6.61246 693.147L6.10294 693.101C6.41431 693.429 6.75966 693.773 7.1503 694.129C7.32013 694.14 7.49564 694.196 7.69378 694.247V694.281ZM4.263 690.556C4.56305 690.511 4.94802 690.455 5.39527 690.404C4.73856 690.065 4.08184 689.71 3.57798 689.41C3.64025 689.585 3.71952 689.766 3.8101 689.975C4.00719 690.114 4.16352 690.303 4.263 690.522V690.556ZM3.48174 689.179C3.86105 689.377 4.19507 689.546 4.44983 689.653C4.88009 689.839 5.47453 690.048 6.14824 690.291L6.87855 690.229C6.45395 690.059 6.01802 689.873 5.57644 689.664L5.42924 689.602C4.74422 689.32 4.04787 689.021 3.36852 688.705C3.40814 688.852 3.44777 689.021 3.48174 689.179ZM7.89193 690.184C8.14103 690.184 8.39013 690.184 8.65055 690.184L7.59188 689.834C7.38807 689.834 7.18992 689.834 7.02575 689.834L7.89193 690.184ZM9.53372 690.217C10.1474 690.285 10.7563 690.39 11.3567 690.534C10.6886 690.268 10.1451 690.048 9.8734 689.93C9.6352 689.818 9.39145 689.718 9.14309 689.631C8.83738 689.687 8.54298 689.732 8.24859 689.766L9.53372 690.217ZM12.4833 690.816C12.9928 690.957 13.508 691.104 14.0175 691.256L10.2754 689.348C9.99229 689.427 9.70922 689.495 9.41483 689.557C10.3999 689.935 11.4756 690.375 12.5059 690.816H12.4833ZM26.4838 698.051C26.7952 698.051 27.0896 698.051 27.367 698.051L21.0942 694.857L20.8451 695.139L26.4838 698.051ZM29.5239 697.808C29.5331 697.665 29.5331 697.522 29.5239 697.379L22.1302 693.835C22.051 693.897 21.9547 693.971 21.8415 694.072L29.5239 697.808ZM22.6001 690.471C24.4633 690.927 26.2881 691.527 28.0576 692.266C27.7293 691.775 27.3839 691.301 27.0556 690.855C24.9552 690.076 23.2285 689.506 21.7113 689.055V689.117C21.9732 689.529 22.186 689.971 22.3453 690.432L22.6001 690.471ZM38.2254 695.551C35.7514 694.422 33.5831 693.48 31.6639 692.678C31.8281 693.152 31.981 693.587 32.1282 693.959C38.4575 696.775 45.8909 700.816 48.2064 704.513C48.839 705.569 49.5996 706.543 50.4709 707.414L33.6001 699.332C33.5209 699.445 33.4303 699.552 33.334 699.665L54.281 709.824C54.3461 709.667 54.3973 709.504 54.4339 709.338C54.4339 709.338 54.0149 702.775 38.2254 695.568V695.551ZM3.25528 687.892C3.25528 687.999 3.25529 688.112 3.28359 688.231C3.84973 688.519 4.48946 688.795 5.19146 689.106C5.21892 689.043 5.25513 688.984 5.29903 688.931C4.59606 688.629 3.91339 688.282 3.25528 687.892ZM4.26867 687.328L3.7365 687.469C4.27367 687.955 4.87108 688.37 5.51416 688.705C5.6227 688.617 5.73819 688.538 5.8595 688.468C5.76892 688.423 5.684 688.389 5.61607 688.349C5.14508 688.051 4.69491 687.721 4.26867 687.362V687.328ZM4.8348 687.17C5.25312 687.585 5.71643 687.952 6.21617 688.265C6.32374 688.208 6.44262 688.158 6.56717 688.101C6.05911 687.844 5.607 687.489 5.23676 687.057L4.8348 687.17ZM5.63871 686.95L5.27639 687.051L6.74834 687.836C6.82054 687.888 6.8962 687.935 6.97479 687.977L7.34844 687.847L5.63871 686.95ZM6.6804 686.668L8.37881 687.503L8.76378 687.413L7.00876 686.572L6.6804 686.668ZM7.37674 686.476L7.72775 686.589C8.28699 686.772 8.82279 687.02 9.32425 687.328L9.66959 687.266C9.15441 686.91 8.59394 686.487 8.28256 686.25L7.37674 686.476ZM8.32785 686.216C8.67319 686.425 9.29028 686.78 9.96964 687.204L10.5358 687.136L10.3659 687.029C10.0715 686.843 9.38087 686.464 8.66754 686.12L8.32785 686.216ZM9.00722 686.086C9.77716 686.431 10.5471 686.792 11.1868 687.096H11.6907L11.1246 686.865C10.7056 686.679 10.0489 686.414 9.42616 686.143L9.00722 686.086ZM9.70922 686.199C10.5641 686.555 11.4699 686.916 12.104 687.142C12.3844 687.162 12.6607 687.221 12.9249 687.317C13.0175 687.355 13.1021 687.41 13.174 687.48C13.8647 687.678 14.7195 687.904 15.5914 688.163L15.7952 687.994C14.176 687.508 12.2512 686.865 10.6547 686.335L9.70922 686.199ZM12.3927 686.611C13.4231 686.967 14.5893 687.334 16.1122 687.74L16.3217 687.604C15.3366 687.356 14.3006 687.08 13.2476 686.747L12.3927 686.611ZM15.4895 687.221L16.5028 687.503H16.5481C16.1971 687.384 15.8291 687.328 15.4725 687.226L15.4895 687.221ZM18.7561 689.19C18.5862 688.84 18.3994 688.479 18.1899 688.101C16.1858 687.65 17.069 688.4 18.7391 689.196L18.7561 689.19ZM18.6598 684.111C18.9316 685.319 19.8996 687.892 20.4375 688.536C20.9753 689.179 21.7509 690.793 21.6943 691.318C21.6565 691.515 21.6758 691.718 21.75 691.904C21.8242 692.09 21.9503 692.251 22.1132 692.368C22.4473 692.678 21.3037 693.711 20.9244 694.061C20.5125 694.553 20.1923 695.115 19.9789 695.72C19.7581 696.234 19.7015 696.527 20.0865 695.906C20.4714 695.286 21.3263 694.535 21.8641 693.863C22.402 693.192 22.8039 693.434 23.0417 692.943C23.2795 692.452 22.9907 692.069 22.5888 691.572C22.4489 691.422 22.3447 691.243 22.2839 691.048C22.2231 690.852 22.2074 690.646 22.2378 690.443C22.2378 690.105 22 689.879 21.1055 688.186C20.3672 686.836 19.8982 685.356 19.7241 683.829C19.6391 683.122 19.4139 682.439 19.0618 681.82C19.0901 680.787 20.4148 680.019 20.4148 680.019C17.5502 681.216 18.3484 682.898 18.6428 684.111H18.6598ZM21.4225 679.427C21.1684 679.716 20.8681 679.962 20.5337 680.155C20.2143 680.331 19.9364 680.573 19.7187 680.865C19.5009 681.157 19.3484 681.492 19.2712 681.848C19.2712 681.848 19.8374 682.615 20.0582 684.709C20.3195 686.048 20.7874 687.339 21.4452 688.536C23.0757 689.01 24.7911 689.563 26.5744 690.229C26.2638 689.818 25.9891 689.382 25.7535 688.925C24.6313 686.801 23.36 684.758 21.9491 682.813C21.5774 682.341 21.3337 681.781 21.2415 681.188C21.1493 680.595 21.2117 679.989 21.4225 679.427ZM18.422 645.564C18.1063 645.608 17.8191 645.77 17.6192 646.018C17.4193 646.265 17.3217 646.58 17.3464 646.896C17.3464 646.896 17.9465 645.706 18.422 645.564ZM16.1179 652.286C16.8652 652.286 15.7329 652.625 16.684 652.941C17.4936 653.223 15.8801 654.803 16.9218 654.544C18.054 654.256 18.6202 652.85 18.841 653.415C19.0618 653.979 18.4107 654.544 18.7334 654.696C19.0561 654.848 19.3562 653.844 19.9336 653.567C19.9336 653.567 19.4807 653.2 19.8827 651.682C20.0582 651.039 19.6505 651.852 19.3165 650.553C18.9825 649.255 18.507 649.193 18.1163 648.956C17.7257 648.719 17.8276 647.184 17.7597 647.224C17.6917 647.263 17.6521 648.098 17.4539 648.787C17.3502 649.137 17.2196 649.478 17.0633 649.809C17.3665 649.717 17.6919 649.731 17.9861 649.848C18.3654 650.04 18.2465 650.559 18.2465 650.559C17.9707 650.431 17.6588 650.401 17.3634 650.474C16.9388 650.548 16.5198 650.813 16.4406 650.576C16.2999 650.24 16.2323 649.879 16.2424 649.515C16.033 650.029 15.9291 650.58 15.9367 651.135C15.9367 651.84 15.5404 652.292 16.1179 652.269V652.286ZM4.10448 667.011C4.3366 668.45 4.38755 667.27 4.39322 666.92C4.3877 666.675 4.35543 666.431 4.29697 666.192C4.59291 665.748 4.93237 665.334 5.31036 664.956C5.99883 664.134 6.62339 663.26 7.1786 662.343C6.75966 662.665 6.53321 662.343 5.91046 662.603C5.28771 662.862 4.56872 665.097 4.26867 665.515C3.96862 665.933 3.96861 666.164 4.10448 667.011Z" fill="white"/>
</g>
<path d="M157.432 321.165C156.489 321.567 155.337 322.463 154.67 322.697C154.002 322.931 153.284 322.747 152.65 323.099C151.482 323.611 150.174 323.709 148.944 323.375C147.633 322.931 143.376 321.031 141.198 321.324C139.019 321.617 138.802 322.161 137.859 321.743C136.916 321.324 135.948 320.512 134.52 320.453C133.093 320.395 132.592 319.708 130.572 319.239C130.175 319.141 129.8 318.964 129.47 318.72C128.666 318.269 127.741 318.082 126.825 318.185C127.221 317.578 127.469 316.887 127.551 316.167C127.551 315.163 128.385 314.895 128.102 313.522C127.943 312.634 128.102 311.278 127.693 310.717C127.284 310.156 127.86 309.997 126.566 308.825C125.272 307.653 125.848 307.477 124.654 307.41C123.867 307.367 123.083 307.269 122.309 307.117C120.94 306.925 120.539 306.925 119.738 307.477C118.859 308.093 118.166 308.938 117.735 309.922C117.409 310.709 116.9 310.868 116.9 312.216C116.9 313.564 116.191 314.727 116.625 315.397C117.059 316.067 116.967 316.971 117.092 317.716C117.144 318.082 117.291 318.429 117.518 318.72H117.359C116.92 318.584 116.466 318.505 116.007 318.486C115.405 318.38 114.789 318.38 114.187 318.486C113.586 318.486 112.952 318.603 112.301 318.704C109.505 319.156 108.653 321.642 104.747 323.333C100.841 325.024 99.0045 328.984 95.8995 329.964C92.7944 330.943 90.3739 334.149 87.7697 336.753C85.1654 339.356 82.4944 340.889 80.5914 341.048C78.6883 341.207 77.9538 342.161 77.4029 342.395C76.852 342.63 76.6183 343.408 75.7335 344.07C74.8487 344.731 76.0257 344.765 75.3579 345.443C74.6902 346.121 76.009 346.037 76.009 346.037C76.009 346.037 75.9672 346.782 76.3512 347C76.7351 347.217 78.0205 345.325 78.6299 346.263C79.2392 347.201 83.638 346.02 84.5895 344.497C85.541 342.973 88.8547 340.177 92.5858 338.695C96.3168 337.213 97.4854 334.049 100.449 333.865C100.45 333.99 100.47 334.114 100.507 334.233C100.791 335.119 100.896 336.052 100.816 336.979C100.682 337.448 100.382 338.452 100.999 338.879C101.617 339.306 100.999 340.671 101.475 340.88C101.951 341.089 102.076 343.023 102.635 343.174C102.941 343.268 103.26 343.308 103.579 343.291C102.936 343.868 102.227 344.366 101.467 344.773C100.031 345.61 97.9361 346.146 96.2167 349.67C95.1756 351.832 93.8041 353.818 92.1517 355.556C91.3171 356.552 90.1735 356.518 89.8814 357.858C89.8339 358.061 89.7696 358.26 89.6894 358.452C71.6936 367.276 60.2585 375.061 56.9281 380.545L56.7945 380.721C55.0667 383.081 54.5659 385.434 55.3839 386.798C56.2019 388.163 61.1349 391.997 81.5846 384.471C102.577 376.744 129.287 359.54 133.085 348.582C134.278 345.635 132.726 344.488 132.726 344.488L132.125 344.589L130.631 344.832L129.796 344.965L128.602 345.166L127.768 344.857L126.933 344.555C126.933 344.555 124.813 345.016 121.232 346.037C121.216 345.947 121.176 345.863 121.115 345.794C120.584 344.935 120.33 343.932 120.389 342.923C120.598 342.412 118.62 340.813 119.221 340.344C119.822 339.876 119.638 339.172 119.087 338.385C118.536 337.598 118.077 337.289 118.252 336.569C118.362 336.117 118.315 335.642 118.119 335.221C118.119 335.221 120.623 333.019 120.94 332.291C121.257 331.563 124.187 330.675 125.656 329.738C127.125 328.8 130.956 325.694 132.333 326.004C133.552 326.23 137.692 326.975 138.694 326.757C139.862 326.506 140.597 327.234 142.867 326.933C145.137 326.632 150.463 325.635 150.813 326.029C151.164 326.422 153.384 325.552 154.469 324.715C155.554 323.877 156.823 322.781 157.391 322.32C157.958 321.86 158.376 320.772 157.432 321.165ZM113.92 351.37C114.288 351.37 114.613 352.207 114.922 352.592C115.231 352.977 115.665 355.02 115.94 355.648C116.216 356.276 118.11 357.255 117.1 357.18C116.636 357.113 116.191 356.949 115.794 356.698C115.397 356.447 115.057 356.115 114.797 355.723C114.638 355.296 114.454 352.919 114.179 352.5C114.004 352.149 113.915 351.762 113.92 351.37ZM98.8125 354.718C102.986 352.852 106.141 351.638 108.979 350.533C114.947 348.297 107.568 352.776 103.069 354.116C100.668 354.98 98.3132 355.972 96.0163 357.088C96.8195 356.156 97.763 355.357 98.8125 354.718ZM114.922 356.51C115.105 356.662 115.297 356.801 115.498 356.929C114.338 357.766 112.994 358.712 111.592 359.616C112.246 358.974 112.859 358.292 113.428 357.573L114.947 356.51H114.922ZM122.76 358.067C122.593 358.176 122.426 358.293 122.267 358.419C121.808 358.477 121.282 358.528 120.731 358.578C122.032 357.434 123.532 356.54 125.155 355.941L125.564 355.849C124.729 356.56 123.803 357.297 122.76 358.067ZM82.2607 381.173C80.4578 381.884 78.7217 382.529 77.0774 383.073C81.8935 379.59 85.3407 376.953 88.0952 375.539C91.8763 373.655 100.54 368.456 104.789 365.685C105.707 365.082 106.775 364.404 107.886 363.718L108.845 363.643C106.876 364.932 104.956 366.204 103.345 367.326C98.0613 370.993 100.549 370.44 93.9797 375.647L93.3954 376.15C90.7411 377.489 88.1703 378.689 85.6829 379.75C89.5642 377.565 94.8645 374.275 98.1281 370.909C92.4557 373.694 87.1299 377.139 82.2607 381.173ZM67.6204 385.434C66.807 385.553 65.9879 385.629 65.1664 385.66C68.9976 383.458 72.545 381.474 75.4414 379.883C79.0639 378.427 82.845 376.819 86.6178 375.07C83.2156 376.913 79.9316 378.968 76.7852 381.223C75.2828 382.32 73.8555 383.391 72.4365 384.463C71.5267 384.697 70.6586 384.898 69.8323 385.057C73.964 382.077 77.3444 379.708 78.9637 378.795C78.9637 378.795 74.0641 381.29 67.6204 385.434ZM95.0648 364.605H96.0998L94.589 365.442C94.484 365.315 94.3917 365.178 94.3136 365.032L95.0648 364.605ZM106.492 363.869L107.477 363.793C104.972 365.334 102.468 366.874 100.666 367.828C100.098 368.138 99.4469 368.481 98.7541 368.833C101.425 367.318 104.014 365.661 106.508 363.869H106.492ZM106.667 366.02C107.351 365.451 108.52 364.58 109.88 363.609L111.65 363.484C108.57 365.903 104.63 369.067 101.3 371.93C100.376 372.455 99.4497 372.966 98.5204 373.462C101.258 371.001 104.622 367.728 106.684 366.02H106.667ZM122.943 356.259C121.332 357.196 119.913 358.168 119.17 358.703C118.809 358.703 118.45 358.703 118.094 358.703H117.977C119.229 357.699 120.189 356.937 121.057 356.334C121.591 356.393 122.25 356.326 122.96 356.259H122.943ZM119.93 356.845C119.095 357.623 118.311 358.343 117.91 358.728C117.585 358.728 117.176 358.787 116.7 358.854L118.853 357.397C119.24 357.262 119.608 357.077 119.947 356.845H119.93ZM105.807 368.841C108.359 367.273 110.74 365.441 112.91 363.375C113.517 363.324 114.109 363.266 114.688 363.199C114.171 363.726 113.653 364.262 113.152 364.756C109.814 366.907 106.475 368.992 103.011 370.968C103.868 370.164 104.805 369.452 105.807 368.841ZM117.326 357.59C117.834 357.635 118.346 357.572 118.828 357.406C118.102 357.841 117.276 358.352 116.383 358.904C115.99 358.963 115.548 359.03 115.114 359.114C115.248 359.009 115.369 358.888 115.473 358.754L114.847 359.155L112.919 359.524C113.67 359.055 114.338 358.628 114.897 358.243C115.456 357.858 115.823 357.607 116.224 357.305C116.52 357.432 116.832 357.52 117.151 357.565L116.316 358.343C116.316 358.343 116.666 358.067 117.326 357.59ZM102.076 361.173L100.832 361.357L114.187 353.823C114.187 353.957 114.187 354.091 114.246 354.233L102.076 361.173ZM90.5825 367.15L90.7411 367.209C90.8925 367.248 91.0326 367.323 91.1501 367.427L57.8128 386.531C57.5787 386.404 57.3554 386.258 57.1451 386.095L90.5825 367.15ZM64.7073 383.894C66.2265 383.358 67.8374 382.78 69.5235 382.144C67.5703 383.274 65.5754 384.438 63.5722 385.626C63.0114 385.597 62.4535 385.527 61.9028 385.417L64.7073 383.894ZM131.374 349.695C131.065 349.821 130.639 349.972 130.147 350.131C130.439 349.878 130.687 349.578 130.881 349.243C129.789 349.727 128.732 350.287 127.718 350.918L125.606 351.52C125.834 351.383 126.071 351.26 126.315 351.152C128.446 350.116 130.519 348.965 132.525 347.703C132.45 347.912 132.367 348.138 132.258 348.381C131.524 348.942 131.791 349.101 131.374 349.695ZM132.626 347.393C132.05 347.728 131.54 348.013 131.148 348.23C129.479 349.068 126.315 350.323 123.853 351.721C123.687 351.648 123.539 351.54 123.419 351.403C124.946 350.675 127.117 349.695 129.287 348.574C129.365 348.544 129.44 348.508 129.512 348.465C130.614 347.912 131.707 347.36 132.717 346.79C132.702 346.993 132.671 347.195 132.626 347.393ZM123.052 350.951C122.977 350.859 122.91 350.759 122.835 350.675C123.861 350.24 124.946 349.796 126.057 349.31L127.016 349.168C125.865 349.695 124.563 350.29 123.052 350.951ZM122.609 350.466C122.485 350.344 122.338 350.25 122.175 350.189L122.401 350.072C122.718 349.913 123.127 349.729 123.594 349.52C124.087 349.52 124.563 349.461 125.038 349.419L122.609 350.466ZM121.833 350.122H121.666C121.461 350.134 121.257 350.162 121.057 350.206L120.957 349.955L121.658 349.562C122.117 349.562 122.584 349.562 123.043 349.562L121.833 350.122ZM113.887 352.751L97.1432 361.96L95.8995 362.127L113.778 352.45C113.816 352.555 113.863 352.656 113.92 352.751H113.887ZM101.592 353.044C102.672 352.336 103.637 351.467 104.455 350.466C105.624 348.9 106.007 349.126 107.794 348.004C109.58 346.883 109.789 347.067 109.789 347.067C110.1 347.611 110.347 348.189 110.523 348.791C110.594 349.024 110.701 349.245 110.84 349.444C107.994 350.424 104.881 351.613 101.592 353.044ZM88.9215 336.812C87.8949 337.925 86.1587 340.219 85.3574 340.503C84.5561 340.788 84.1555 340.244 83.8967 340.847C83.638 341.449 81.2424 341.282 81.2424 341.282C83.3952 340.74 85.3656 339.633 86.9517 338.076C89.606 335.464 93.0782 331.973 94.7226 331.119C96.3669 330.265 98.896 329.285 99.7307 328.021C100.996 326.311 102.623 324.904 104.497 323.902C106.692 322.835 108.74 321.487 110.59 319.892C111.566 318.871 114.488 318.737 113.929 319.892C113.369 321.048 112.001 322.496 108.921 323.174C105.841 323.852 103.495 325.418 103.879 326.079C104.263 326.74 102.552 326.079 101.784 326.983C101.016 327.887 101.125 328.909 99.1881 329.855C97.2517 330.801 89.9398 335.698 88.9215 336.812ZM102.794 342.78C102.327 342.521 102.226 341.031 101.867 340.738C101.509 340.445 101.525 340.462 101.65 339.8C101.776 339.139 101.283 338.77 101.041 338.26C100.799 337.749 101.15 336.686 101.141 335.866C101.135 335.387 101.018 334.918 100.799 334.493C100.799 334.493 104.689 335.012 102.635 335.48C100.582 335.949 103.963 335.907 102.811 336.77C101.659 337.632 101.909 338.059 104.004 337.841C106.099 337.624 105.548 338.36 104.689 338.871C103.829 339.382 104.689 340.763 105.465 340.202C106.241 339.641 109.313 341.148 107.535 341.039C105.757 340.93 104.004 342.797 104.004 342.797C103.827 342.925 103.614 342.992 103.396 342.989C103.179 342.986 102.967 342.913 102.794 342.78ZM91.292 356.719C92.2018 356.334 95.0314 352.994 95.8577 351.278C96.6841 349.561 97.7441 347.519 99.1965 346.69C100.649 345.861 104.864 343.341 105.874 342.22C106.884 341.098 108.695 342.521 106.6 343.509C104.505 344.497 102.427 345.183 101.809 345.962C101.191 346.74 98.053 349.695 97.1598 351.278C96.2667 352.86 93.0449 356.736 92.494 356.995C91.9431 357.255 91.3338 357.163 91.3755 357.891C91.4172 358.62 90.9498 359.18 90.2236 360.085C89.4974 360.989 89.3389 361.759 89.5225 364.496C89.2191 363.379 89.0482 362.23 89.0133 361.072C89.1552 360.286 89.9649 359.273 90.04 358.561C90.0535 358.167 90.1783 357.784 90.3999 357.458C90.6216 357.132 90.9309 356.876 91.292 356.719ZM80.5496 363.71C83.8884 361.977 86.7597 360.486 89.3722 359.189C89.1205 359.667 88.9245 360.173 88.788 360.696C79.7233 365.384 69.1896 371.663 65.5337 376.485C64.4359 377.956 63.2066 379.323 61.8611 380.57L89.4056 365.66C89.4321 365.817 89.4712 365.97 89.5225 366.121L56.0433 384.454C55.9837 384.239 55.9501 384.017 55.9432 383.793C55.9432 383.793 58.0215 375.53 80.5496 363.71ZM132.717 345.911C132.717 346.029 132.717 346.154 132.717 346.288C131.824 346.782 130.881 347.276 129.796 347.82C129.737 347.752 129.666 347.695 129.587 347.653C130.697 347.109 131.741 346.531 132.717 345.911ZM130.956 345.61H131.841C131.039 346.329 130.163 346.96 129.228 347.494C129.031 347.428 128.83 347.372 128.627 347.326L128.995 347.134C129.679 346.666 130.334 346.157 130.956 345.61ZM129.988 345.61C129.373 346.192 128.709 346.719 128.001 347.184C127.809 347.184 127.617 347.134 127.409 347.109C128.129 346.711 128.777 346.196 129.329 345.585L129.988 345.61ZM128.661 345.61H129.287L127.108 346.849C126.999 346.932 126.885 347.008 126.766 347.075H126.148L128.661 345.61ZM126.95 345.61L124.379 347.017H123.745L126.374 345.593L126.95 345.61ZM125.815 345.61L125.289 345.828C124.467 346.172 123.677 346.586 122.927 347.067H122.384C123.127 346.531 123.928 345.92 124.379 345.577L125.815 345.61ZM124.287 345.61C123.778 345.928 122.868 346.497 121.883 347.142L121.366 347.192V346.975C121.858 346.665 122.768 346.138 123.694 345.61H124.287ZM123.202 345.669C122.576 345.987 121.95 346.322 121.357 346.631C121.357 346.564 121.357 346.506 121.357 346.447L122.609 345.845L123.202 345.669ZM122.184 345.953L121.349 346.364C121.349 346.305 121.349 346.246 121.349 346.196L122.184 345.953ZM112.41 349.695C112.61 350.189 113.495 350.005 113.92 350.374C114.346 350.742 113.695 351.211 113.086 350.717C112.476 350.223 111.274 349.695 111.107 349.168C110.903 348.595 110.664 348.036 110.39 347.494C111.358 348.984 112.209 349.235 112.41 349.695ZM120.247 316.025C120.189 316.862 119.346 317.833 119.93 317.791C120.514 317.749 119.855 318.578 119.321 318.829C118.787 319.08 119.98 319.666 119.688 319.909C119.396 320.152 120.097 321.039 119.83 321.073C119.563 321.106 118.736 319.131 118.378 318.787C118.16 318.515 118.002 318.2 117.913 317.863C117.824 317.525 117.806 317.173 117.86 316.828C117.96 316.05 117.501 315.355 117.568 314.677C117.601 313.993 117.582 313.307 117.509 312.626C117.649 312.73 117.762 312.866 117.836 313.024C117.91 313.182 117.944 313.356 117.935 313.53C117.935 314.116 118.119 313.664 118.077 314.292C118.035 314.92 117.893 314.769 118.436 314.811C118.978 314.853 118.803 315.121 118.803 315.121C118.135 314.92 118.035 315.698 118.628 315.673C118.92 315.651 119.204 315.565 119.46 315.42C119.715 315.275 119.936 315.076 120.105 314.836C120.598 314.325 120.306 315.213 120.247 316.058V316.025ZM119.196 309.646C119.788 309.361 121.032 309.503 119.488 309.955C117.943 310.407 118.553 311.312 117.818 312.023C117.084 312.735 117.276 312.199 117.534 311.278C117.956 310.333 118.453 309.423 119.02 308.557C119.404 307.837 121.032 307.561 121.032 307.561C118.778 308.993 118.603 309.93 119.196 309.646Z" fill="white"/>
<g opacity="0.85">
<g filter="url(#filter0_d_7946_41536)">
<ellipse rx="2.25376" ry="2.23965" transform="matrix(-1 0 0 1 327.06 701.041)" fill="white"/>
</g>
<path d="M558.408 681.556L544.998 651.657M558.408 681.556L476.259 707.312M558.408 681.556L400.983 640.907M558.408 681.556L338.442 647.738M558.408 681.556L464.427 640.907M558.408 681.556L486.288 640.907M544.998 651.657L512.882 663.415M544.998 651.657L340.132 647.77M544.998 651.657L476.259 707.312M544.998 651.657L486.288 640.907M512.882 663.415L486.288 640.907M512.882 663.415L380.023 679.653M512.882 663.415L377.77 613.919M512.882 663.415L340.132 647.77M486.288 640.907H464.427M486.288 640.907L476.259 707.312M486.288 640.907L442.903 589.506M464.427 640.907L442.903 589.506M464.427 640.907L380.023 589.506M442.903 589.506L400.983 640.907M442.903 589.506L380.023 679.653M442.903 589.506L476.259 707.312M442.903 589.506L338.442 647.738M442.903 589.506H380.023M400.983 640.907L377.77 613.919M400.983 640.907L476.259 707.312M377.77 613.919L380.023 589.506M377.77 613.919L327.624 702.385M377.77 613.919L293.93 555.912M380.023 589.506L333.821 601.265M380.023 589.506L476.259 707.312M333.821 601.265L293.93 555.912M333.821 601.265L380.023 679.653M333.821 601.265L476.259 707.312M293.93 555.912L338.442 647.738M338.442 647.738L327.624 702.385M338.442 647.738L340.132 647.77M327.624 702.385L380.023 679.653M380.023 679.653L476.259 707.312" stroke="white"/>
<g filter="url(#filter1_d_7946_41536)">
<ellipse rx="2.25375" ry="2.23967" transform="matrix(-1 0 0 1 334.497 601.376)" fill="white"/>
</g>
<g filter="url(#filter2_d_7946_41536)">
<ellipse rx="2.81719" ry="2.79956" transform="matrix(-1 0 0 1 379.685 590.738)" fill="white"/>
</g>
<g filter="url(#filter3_d_7946_41536)">
<ellipse rx="2.81719" ry="2.79958" transform="matrix(-1 0 0 1 379.685 681.445)" fill="white"/>
</g>
<g filter="url(#filter4_d_7946_41536)">
<ellipse rx="2.81719" ry="2.79957" transform="matrix(-1 0 0 1 401.547 640.011)" fill="white"/>
</g>
<g filter="url(#filter5_d_7946_41536)">
<ellipse rx="2.8172" ry="2.79957" transform="matrix(-1 0 0 1 293.817 555.8)" fill="white"/>
</g>
<g filter="url(#filter6_d_7946_41536)">
<ellipse rx="3.38063" ry="3.35949" transform="matrix(-1 0 0 1 379.122 613.695)" fill="white"/>
</g>
<g filter="url(#filter7_d_7946_41536)">
<ellipse rx="3.38066" ry="3.35947" transform="matrix(-1 0 0 1 340.132 646.17)" fill="white"/>
</g>
</g>
<g opacity="0.85">
<g filter="url(#filter8_d_7946_41536)">
<ellipse rx="2.25376" ry="2.23966" transform="matrix(-0.965926 -0.258819 -0.258819 0.965926 13.1748 10.3437)" fill="white"/>
</g>
<g filter="url(#filter9_d_7946_41536)">
<ellipse rx="2.25376" ry="2.23966" transform="matrix(-0.965926 -0.258819 -0.258819 0.965926 101.159 127.825)" fill="white"/>
</g>
<path d="M100.658 128.386L95.4438 96.0351M100.658 128.386L14.6418 132.003M100.658 128.386L-40.8816 48.3773M100.658 128.386L-103.06 38.7885M100.658 128.386L20.3999 64.7976M100.658 128.386L41.5164 70.4557M95.4438 96.0351L61.3789 99.0804M95.4438 96.0351L-101.436 39.2569M95.4438 96.0351L14.6418 132.003M95.4438 96.0351L41.5164 70.4557M61.3789 99.0804L41.5164 70.4557M61.3789 99.0804L-71.1555 80.3783M61.3789 99.0804L-56.3193 16.3008M61.3789 99.0804L-101.436 39.2569M41.5164 70.4557L20.3999 64.7976M41.5164 70.4557L14.6418 132.003M41.5164 70.4557L12.9132 9.5782M20.3999 64.7976L12.9132 9.5782M20.3999 64.7976L-47.824 -6.69629M12.9132 9.5782L-40.8816 48.3773M12.9132 9.5782L-71.1555 80.3783M12.9132 9.5782L14.6418 132.003M12.9132 9.5782L-103.06 38.7885M12.9132 9.5782L-47.824 -6.69629M-40.8816 48.3773L-56.3193 16.3008M-40.8816 48.3773L14.6418 132.003M-56.3193 16.3008L-47.824 -6.69629M-56.3193 16.3008L-127.653 88.7741M-56.3193 16.3008L-122.289 -61.4291M-47.824 -6.69629L-95.4949 -7.2967M-47.824 -6.69629L14.6418 132.003M-95.4949 -7.2967L-122.289 -61.4291M-95.4949 -7.2967L-71.1555 80.3783M-95.4949 -7.2967L14.6418 132.003M-122.289 -61.4291L-103.06 38.7885M-103.06 38.7885L-127.653 88.7741M-103.06 38.7885L-101.436 39.2569M-127.653 88.7741L-71.1555 80.3783M-71.1555 80.3783L14.6418 132.003" stroke="white"/>
<g filter="url(#filter10_d_7946_41536)">
<ellipse rx="2.25375" ry="2.23966" transform="matrix(-0.965926 -0.258819 -0.258819 0.965926 95.8065 95.5527)" fill="white"/>
</g>
<g filter="url(#filter11_d_7946_41536)">
<ellipse rx="2.81719" ry="2.79956" transform="matrix(-0.965926 -0.258819 -0.258819 0.965926 62.1048 99.8544)" fill="white"/>
</g>
<g filter="url(#filter12_d_7946_41536)">
<ellipse rx="3.38063" ry="3.35949" transform="matrix(-0.965926 -0.258819 -0.258819 0.965926 13.7272 131.062)" fill="white"/>
</g>
<g filter="url(#filter13_d_7946_41536)">
<ellipse rx="3.38063" ry="3.35949" transform="matrix(-0.965926 -0.258819 -0.258819 0.965926 20.378 64.4438)" fill="white"/>
</g>
<g filter="url(#filter14_d_7946_41536)">
<ellipse rx="3.38065" ry="3.35949" transform="matrix(-0.965926 -0.258819 -0.258819 0.965926 42.1476 70.2768)" fill="white"/>
</g>
</g>
<rect x="70.5" y="283" width="3" height="283" transform="rotate(-90 70.5 283)" fill="#D9D9D9"/>
<rect x="70.5" y="604" width="3" height="283" transform="rotate(-90 70.5 604)" fill="#D9D9D9"/>
</g>
<defs>
<filter id="filter0_d_7946_41536" x="320.806" y="698.802" width="12.5075" height="12.4795" filterUnits="userSpaceOnUse" color-interpolation-filters="sRGB">
<feFlood flood-opacity="0" result="BackgroundImageFix"/>
<feColorMatrix in="SourceAlpha" type="matrix" values="0 0 0 0 0 0 0 0 0 0 0 0 0 0 0 0 0 0 127 0" result="hardAlpha"/>
<feOffset dy="4"/>
<feGaussianBlur stdDeviation="2"/>
<feComposite in2="hardAlpha" operator="out"/>
<feColorMatrix type="matrix" values="0 0 0 0 0 0 0 0 0 0 0 0 0 0 0 0 0 0 0.25 0"/>
<feBlend mode="normal" in2="BackgroundImageFix" result="effect1_dropShadow_7946_41536"/>
<feBlend mode="normal" in="SourceGraphic" in2="effect1_dropShadow_7946_41536" result="shape"/>
</filter>
<filter id="filter1_d_7946_41536" x="328.244" y="599.137" width="12.5075" height="12.4795" filterUnits="userSpaceOnUse" color-interpolation-filters="sRGB">
<feFlood flood-opacity="0" result="BackgroundImageFix"/>
<feColorMatrix in="SourceAlpha" type="matrix" values="0 0 0 0 0 0 0 0 0 0 0 0 0 0 0 0 0 0 127 0" result="hardAlpha"/>
<feOffset dy="4"/>
<feGaussianBlur stdDeviation="2"/>
<feComposite in2="hardAlpha" operator="out"/>
<feColorMatrix type="matrix" values="0 0 0 0 0 0 0 0 0 0 0 0 0 0 0 0 0 0 0.25 0"/>
<feBlend mode="normal" in2="BackgroundImageFix" result="effect1_dropShadow_7946_41536"/>
<feBlend mode="normal" in="SourceGraphic" in2="effect1_dropShadow_7946_41536" result="shape"/>
</filter>
<filter id="filter2_d_7946_41536" x="372.868" y="587.938" width="13.6344" height="13.5991" filterUnits="userSpaceOnUse" color-interpolation-filters="sRGB">
<feFlood flood-opacity="0" result="BackgroundImageFix"/>
<feColorMatrix in="SourceAlpha" type="matrix" values="0 0 0 0 0 0 0 0 0 0 0 0 0 0 0 0 0 0 127 0" result="hardAlpha"/>
<feOffset dy="4"/>
<feGaussianBlur stdDeviation="2"/>
<feComposite in2="hardAlpha" operator="out"/>
<feColorMatrix type="matrix" values="0 0 0 0 0 0 0 0 0 0 0 0 0 0 0 0 0 0 0.25 0"/>
<feBlend mode="normal" in2="BackgroundImageFix" result="effect1_dropShadow_7946_41536"/>
<feBlend mode="normal" in="SourceGraphic" in2="effect1_dropShadow_7946_41536" result="shape"/>
</filter>
<filter id="filter3_d_7946_41536" x="372.868" y="678.645" width="13.6344" height="13.5991" filterUnits="userSpaceOnUse" color-interpolation-filters="sRGB">
<feFlood flood-opacity="0" result="BackgroundImageFix"/>
<feColorMatrix in="SourceAlpha" type="matrix" values="0 0 0 0 0 0 0 0 0 0 0 0 0 0 0 0 0 0 127 0" result="hardAlpha"/>
<feOffset dy="4"/>
<feGaussianBlur stdDeviation="2"/>
<feComposite in2="hardAlpha" operator="out"/>
<feColorMatrix type="matrix" values="0 0 0 0 0 0 0 0 0 0 0 0 0 0 0 0 0 0 0.25 0"/>
<feBlend mode="normal" in2="BackgroundImageFix" result="effect1_dropShadow_7946_41536"/>
<feBlend mode="normal" in="SourceGraphic" in2="effect1_dropShadow_7946_41536" result="shape"/>
</filter>
<filter id="filter4_d_7946_41536" x="394.729" y="637.211" width="13.6344" height="13.5991" filterUnits="userSpaceOnUse" color-interpolation-filters="sRGB">
<feFlood flood-opacity="0" result="BackgroundImageFix"/>
<feColorMatrix in="SourceAlpha" type="matrix" values="0 0 0 0 0 0 0 0 0 0 0 0 0 0 0 0 0 0 127 0" result="hardAlpha"/>
<feOffset dy="4"/>
<feGaussianBlur stdDeviation="2"/>
<feComposite in2="hardAlpha" operator="out"/>
<feColorMatrix type="matrix" values="0 0 0 0 0 0 0 0 0 0 0 0 0 0 0 0 0 0 0.25 0"/>
<feBlend mode="normal" in2="BackgroundImageFix" result="effect1_dropShadow_7946_41536"/>
<feBlend mode="normal" in="SourceGraphic" in2="effect1_dropShadow_7946_41536" result="shape"/>
</filter>
<filter id="filter5_d_7946_41536" x="287" y="553" width="13.6344" height="13.5991" filterUnits="userSpaceOnUse" color-interpolation-filters="sRGB">
<feFlood flood-opacity="0" result="BackgroundImageFix"/>
<feColorMatrix in="SourceAlpha" type="matrix" values="0 0 0 0 0 0 0 0 0 0 0 0 0 0 0 0 0 0 127 0" result="hardAlpha"/>
<feOffset dy="4"/>
<feGaussianBlur stdDeviation="2"/>
<feComposite in2="hardAlpha" operator="out"/>
<feColorMatrix type="matrix" values="0 0 0 0 0 0 0 0 0 0 0 0 0 0 0 0 0 0 0.25 0"/>
<feBlend mode="normal" in2="BackgroundImageFix" result="effect1_dropShadow_7946_41536"/>
<feBlend mode="normal" in="SourceGraphic" in2="effect1_dropShadow_7946_41536" result="shape"/>
</filter>
<filter id="filter6_d_7946_41536" x="371.741" y="610.335" width="14.7612" height="14.7188" filterUnits="userSpaceOnUse" color-interpolation-filters="sRGB">
<feFlood flood-opacity="0" result="BackgroundImageFix"/>
<feColorMatrix in="SourceAlpha" type="matrix" values="0 0 0 0 0 0 0 0 0 0 0 0 0 0 0 0 0 0 127 0" result="hardAlpha"/>
<feOffset dy="4"/>
<feGaussianBlur stdDeviation="2"/>
<feComposite in2="hardAlpha" operator="out"/>
<feColorMatrix type="matrix" values="0 0 0 0 0 0 0 0 0 0 0 0 0 0 0 0 0 0 0.25 0"/>
<feBlend mode="normal" in2="BackgroundImageFix" result="effect1_dropShadow_7946_41536"/>
<feBlend mode="normal" in="SourceGraphic" in2="effect1_dropShadow_7946_41536" result="shape"/>
</filter>
<filter id="filter7_d_7946_41536" x="332.751" y="642.81" width="14.7613" height="14.7188" filterUnits="userSpaceOnUse" color-interpolation-filters="sRGB">
<feFlood flood-opacity="0" result="BackgroundImageFix"/>
<feColorMatrix in="SourceAlpha" type="matrix" values="0 0 0 0 0 0 0 0 0 0 0 0 0 0 0 0 0 0 127 0" result="hardAlpha"/>
<feOffset dy="4"/>
<feGaussianBlur stdDeviation="2"/>
<feComposite in2="hardAlpha" operator="out"/>
<feColorMatrix type="matrix" values="0 0 0 0 0 0 0 0 0 0 0 0 0 0 0 0 0 0 0.25 0"/>
<feBlend mode="normal" in2="BackgroundImageFix" result="effect1_dropShadow_7946_41536"/>
<feBlend mode="normal" in="SourceGraphic" in2="effect1_dropShadow_7946_41536" result="shape"/>
</filter>
<filter id="filter8_d_7946_41536" x="6.92139" y="8.10254" width="12.5067" height="12.4824" filterUnits="userSpaceOnUse" color-interpolation-filters="sRGB">
<feFlood flood-opacity="0" result="BackgroundImageFix"/>
<feColorMatrix in="SourceAlpha" type="matrix" values="0 0 0 0 0 0 0 0 0 0 0 0 0 0 0 0 0 0 127 0" result="hardAlpha"/>
<feOffset dy="4"/>
<feGaussianBlur stdDeviation="2"/>
<feComposite in2="hardAlpha" operator="out"/>
<feColorMatrix type="matrix" values="0 0 0 0 0 0 0 0 0 0 0 0 0 0 0 0 0 0 0.25 0"/>
<feBlend mode="normal" in2="BackgroundImageFix" result="effect1_dropShadow_7946_41536"/>
<feBlend mode="normal" in="SourceGraphic" in2="effect1_dropShadow_7946_41536" result="shape"/>
</filter>
<filter id="filter9_d_7946_41536" x="94.9053" y="125.584" width="12.5067" height="12.4824" filterUnits="userSpaceOnUse" color-interpolation-filters="sRGB">
<feFlood flood-opacity="0" result="BackgroundImageFix"/>
<feColorMatrix in="SourceAlpha" type="matrix" values="0 0 0 0 0 0 0 0 0 0 0 0 0 0 0 0 0 0 127 0" result="hardAlpha"/>
<feOffset dy="4"/>
<feGaussianBlur stdDeviation="2"/>
<feComposite in2="hardAlpha" operator="out"/>
<feColorMatrix type="matrix" values="0 0 0 0 0 0 0 0 0 0 0 0 0 0 0 0 0 0 0.25 0"/>
<feBlend mode="normal" in2="BackgroundImageFix" result="effect1_dropShadow_7946_41536"/>
<feBlend mode="normal" in="SourceGraphic" in2="effect1_dropShadow_7946_41536" result="shape"/>
</filter>
<filter id="filter10_d_7946_41536" x="89.5531" y="93.3115" width="12.5067" height="12.4824" filterUnits="userSpaceOnUse" color-interpolation-filters="sRGB">
<feFlood flood-opacity="0" result="BackgroundImageFix"/>
<feColorMatrix in="SourceAlpha" type="matrix" values="0 0 0 0 0 0 0 0 0 0 0 0 0 0 0 0 0 0 127 0" result="hardAlpha"/>
<feOffset dy="4"/>
<feGaussianBlur stdDeviation="2"/>
<feComposite in2="hardAlpha" operator="out"/>
<feColorMatrix type="matrix" values="0 0 0 0 0 0 0 0 0 0 0 0 0 0 0 0 0 0 0.25 0"/>
<feBlend mode="normal" in2="BackgroundImageFix" result="effect1_dropShadow_7946_41536"/>
<feBlend mode="normal" in="SourceGraphic" in2="effect1_dropShadow_7946_41536" result="shape"/>
</filter>
<filter id="filter11_d_7946_41536" x="55.2881" y="97.0527" width="13.6334" height="13.603" filterUnits="userSpaceOnUse" color-interpolation-filters="sRGB">
<feFlood flood-opacity="0" result="BackgroundImageFix"/>
<feColorMatrix in="SourceAlpha" type="matrix" values="0 0 0 0 0 0 0 0 0 0 0 0 0 0 0 0 0 0 127 0" result="hardAlpha"/>
<feOffset dy="4"/>
<feGaussianBlur stdDeviation="2"/>
<feComposite in2="hardAlpha" operator="out"/>
<feColorMatrix type="matrix" values="0 0 0 0 0 0 0 0 0 0 0 0 0 0 0 0 0 0 0.25 0"/>
<feBlend mode="normal" in2="BackgroundImageFix" result="effect1_dropShadow_7946_41536"/>
<feBlend mode="normal" in="SourceGraphic" in2="effect1_dropShadow_7946_41536" result="shape"/>
</filter>
<filter id="filter12_d_7946_41536" x="6.34717" y="127.701" width="14.7601" height="14.7236" filterUnits="userSpaceOnUse" color-interpolation-filters="sRGB">
<feFlood flood-opacity="0" result="BackgroundImageFix"/>
<feColorMatrix in="SourceAlpha" type="matrix" values="0 0 0 0 0 0 0 0 0 0 0 0 0 0 0 0 0 0 127 0" result="hardAlpha"/>
<feOffset dy="4"/>
<feGaussianBlur stdDeviation="2"/>
<feComposite in2="hardAlpha" operator="out"/>
<feColorMatrix type="matrix" values="0 0 0 0 0 0 0 0 0 0 0 0 0 0 0 0 0 0 0.25 0"/>
<feBlend mode="normal" in2="BackgroundImageFix" result="effect1_dropShadow_7946_41536"/>
<feBlend mode="normal" in="SourceGraphic" in2="effect1_dropShadow_7946_41536" result="shape"/>
</filter>
<filter id="filter13_d_7946_41536" x="12.9979" y="61.082" width="14.7601" height="14.7236" filterUnits="userSpaceOnUse" color-interpolation-filters="sRGB">
<feFlood flood-opacity="0" result="BackgroundImageFix"/>
<feColorMatrix in="SourceAlpha" type="matrix" values="0 0 0 0 0 0 0 0 0 0 0 0 0 0 0 0 0 0 127 0" result="hardAlpha"/>
<feOffset dy="4"/>
<feGaussianBlur stdDeviation="2"/>
<feComposite in2="hardAlpha" operator="out"/>
<feColorMatrix type="matrix" values="0 0 0 0 0 0 0 0 0 0 0 0 0 0 0 0 0 0 0.25 0"/>
<feBlend mode="normal" in2="BackgroundImageFix" result="effect1_dropShadow_7946_41536"/>
<feBlend mode="normal" in="SourceGraphic" in2="effect1_dropShadow_7946_41536" result="shape"/>
</filter>
<filter id="filter14_d_7946_41536" x="34.7676" y="66.915" width="14.7601" height="14.7236" filterUnits="userSpaceOnUse" color-interpolation-filters="sRGB">
<feFlood flood-opacity="0" result="BackgroundImageFix"/>
<feColorMatrix in="SourceAlpha" type="matrix" values="0 0 0 0 0 0 0 0 0 0 0 0 0 0 0 0 0 0 127 0" result="hardAlpha"/>
<feOffset dy="4"/>
<feGaussianBlur stdDeviation="2"/>
<feComposite in2="hardAlpha" operator="out"/>
<feColorMatrix type="matrix" values="0 0 0 0 0 0 0 0 0 0 0 0 0 0 0 0 0 0 0.25 0"/>
<feBlend mode="normal" in2="BackgroundImageFix" result="effect1_dropShadow_7946_41536"/>
<feBlend mode="normal" in="SourceGraphic" in2="effect1_dropShadow_7946_41536" result="shape"/>
</filter>
<linearGradient id="paint0_linear_7946_41536" x1="6.14531" y1="481.041" x2="446.022" y2="481.041" gradientUnits="userSpaceOnUse">
<stop stop-color="#E066A1"/>
<stop offset="1" stop-color="#FECF8B"/>
</linearGradient>
<linearGradient id="paint1_linear_7946_41536" x1="360.5" y1="282" x2="58" y2="65" gradientUnits="userSpaceOnUse">
<stop stop-color="#B87FC5"/>
<stop offset="0.591274" stop-color="#6B3E95" stop-opacity="0.85"/>
<stop offset="1" stop-color="#4D2F8F"/>
</linearGradient>
<linearGradient id="paint2_linear_7946_41536" x1="6.14531" y1="760.499" x2="446.022" y2="760.499" gradientUnits="userSpaceOnUse">
<stop stop-color="#FDC591"/>
<stop offset="1" stop-color="#B455AA"/>
</linearGradient>
<clipPath id="clip0_7946_41536">
<rect width="414" height="962" fill="white"/>
</clipPath>
<clipPath id="clip1_7946_41536">
<rect width="55" height="69" fill="white" transform="matrix(-1 0 0 1 55 645)"/>
</clipPath>
</defs>
</svg>
