<svg xmlns="http://www.w3.org/2000/svg" xmlns:xlink="http://www.w3.org/1999/xlink" version="1.2" baseProfile="tiny" id="Layer_1" x="0px" y="0px" width="18.5px" height="18.5px" viewBox="0 0 18.5 18.5" overflow="visible" xml:space="preserve">
<g>
	<g>
		<path fill="#FFFFFF" d="M9.3,3.6c-3.1,0-5.7,2.6-5.7,5.7s2.5,5.6,5.7,5.6c3.1,0,5.7-2.5,5.7-5.7C14.9,6.1,12.4,3.6,9.3,3.6z"/>
		<path fill="#FFFFFF" d="M9.2,0C4.1,0.1,0,4.3,0,9.3c0,5.1,4.1,9.2,9.2,9.2c5.1,0,9.2-4.1,9.2-9.2C18.5,4.1,14.3,0,9.2,0z M9.2,17    c-4.3,0-7.8-3.5-7.8-7.7c0-4.3,3.5-7.8,7.8-7.9c4.3,0,7.8,3.5,7.8,7.8C17,13.5,13.5,17,9.2,17z"/>
	</g>
</g>
</svg>